M48
; DRILL file {KiCad 5.1.6} date Wed Aug 12 10:28:18 2020
; FORMAT={-:-/ absolute / metric / decimal}
; #@! TF.CreationDate,2020-08-12T10:28:18+02:00
; #@! TF.GenerationSoftware,Kicad,Pcbnew,5.1.6
; #@! TF.FileFunction,Plated,1,2,PTH
FMAT,2
METRIC
T1C0.300
T2C1.000
%
G90
G05
T1
X45.626Y-134.24
X45.626Y-178.055
X50.706Y-145.67
X50.706Y-177.42
X51.341Y-129.16
X51.341Y-183.135
X51.976Y-134.875
X51.976Y-139.955
X51.976Y-155.83
X51.976Y-156.465
X51.976Y-157.1
X53.246Y-140.59
X53.246Y-145.67
X53.246Y-148.845
X53.246Y-160.275
X53.246Y-169.8
X54.516Y-148.845
X54.516Y-160.275
X54.516Y-169.8
X55.151Y-134.875
X55.151Y-141.86
X55.786Y-148.845
X55.786Y-160.275
X55.786Y-169.8
X56.421Y-134.875
X56.421Y-177.42
X57.056Y-141.225
X57.056Y-148.845
X57.056Y-160.275
X57.056Y-169.8
X57.691Y-134.875
X58.326Y-148.845
X58.326Y-160.275
X58.326Y-169.8
X58.961Y-134.875
X58.961Y-143.13
X59.596Y-160.275
X59.596Y-169.8
X60.231Y-134.875
X60.231Y-148.845
X60.866Y-160.275
X60.866Y-169.8
X61.501Y-134.875
X61.501Y-148.845
X62.136Y-152.02
X62.136Y-160.275
X62.136Y-169.8
X62.771Y-134.875
X62.771Y-148.845
X63.406Y-160.275
X63.406Y-169.8
X64.041Y-134.875
X64.041Y-149.48
X64.676Y-160.91
X64.676Y-169.8
X65.311Y-134.875
X65.311Y-148.845
X65.946Y-150.75
X65.946Y-160.275
X65.946Y-169.8
X66.581Y-134.875
X66.581Y-148.845
X67.216Y-154.56
X67.216Y-160.275
X67.216Y-169.8
X67.851Y-134.875
X67.851Y-142.495
X67.851Y-144.4
X67.851Y-145.67
X68.486Y-149.48
X68.486Y-160.275
X68.486Y-169.8
X69.121Y-134.875
X69.121Y-148.845
X69.121Y-158.37
X69.756Y-160.275
X69.756Y-169.8
X70.391Y-134.875
X70.391Y-148.845
X71.026Y-159.64
X71.026Y-169.8
X71.661Y-134.875
X71.661Y-146.94
X72.296Y-149.48
X72.296Y-160.275
X72.296Y-169.8
X72.931Y-134.875
X73.566Y-140.59
X73.566Y-148.845
X73.566Y-160.275
X73.566Y-169.8
X74.201Y-134.875
X74.201Y-144.4
X74.836Y-145.67
X74.836Y-160.275
X74.836Y-169.8
X75.471Y-134.875
X75.471Y-143.765
X75.471Y-148.845
X76.106Y-153.29
X76.106Y-160.275
X76.106Y-169.8
X76.741Y-134.875
X76.741Y-148.21
X77.376Y-140.59
X77.376Y-169.8
X77.996Y-138.52
X78.011Y-134.875
X78.011Y-148.845
X78.011Y-157.1
X78.011Y-157.735
X78.646Y-155.83
X78.646Y-169.8
X79.246Y-138.52
X79.281Y-134.875
X79.281Y-148.845
X79.281Y-160.275
X79.281Y-167.26
X79.281Y-167.895
X79.916Y-158.37
X79.916Y-169.8
X80.551Y-134.875
X80.551Y-147.575
X80.551Y-149.48
X81.186Y-157.1
X81.186Y-160.275
X81.186Y-169.8
X81.821Y-134.875
X81.821Y-148.845
X81.821Y-153.925
X82.456Y-160.275
X82.456Y-169.8
X83.091Y-134.875
X83.091Y-148.845
X83.091Y-159.64
X83.726Y-160.275
X83.726Y-169.8
X84.361Y-134.875
X84.361Y-148.845
X84.361Y-155.83
X84.396Y-135.72
X84.996Y-144.4
X84.996Y-160.275
X84.996Y-169.8
X85.631Y-134.875
X85.631Y-149.48
X85.646Y-135.72
X86.266Y-148.21
X86.266Y-160.275
X86.266Y-169.8
X86.901Y-134.875
X86.901Y-148.845
X86.901Y-153.29
X87.536Y-141.86
X87.536Y-160.275
X87.536Y-169.8
X88.171Y-134.875
X88.171Y-148.845
X88.171Y-153.29
X88.806Y-143.13
X88.806Y-160.275
X88.806Y-169.8
X89.441Y-134.875
X89.441Y-148.845
X89.441Y-157.1
X90.076Y-160.275
X90.076Y-169.8
X90.711Y-134.875
X90.711Y-148.845
X90.711Y-157.1
X91.346Y-146.94
X91.346Y-160.275
X91.346Y-169.8
X91.981Y-134.875
X91.981Y-148.845
X92.616Y-160.275
X92.616Y-169.8
X93.251Y-134.875
X93.251Y-148.845
X93.251Y-154.56
X93.886Y-160.275
X93.886Y-169.8
X94.521Y-134.875
X94.521Y-148.845
X95.156Y-160.275
X95.156Y-169.8
X95.791Y-134.875
X95.791Y-148.845
X95.791Y-150.75
X96.426Y-157.1
X96.426Y-160.275
X96.426Y-169.8
X97.061Y-134.875
X97.061Y-148.845
X97.061Y-152.02
X97.696Y-160.275
X97.696Y-169.8
X98.331Y-134.875
X98.331Y-148.845
X98.966Y-150.75
X98.966Y-160.275
X98.966Y-169.8
X99.601Y-134.875
X99.601Y-148.845
X99.601Y-160.91
X100.236Y-153.29
X100.236Y-160.275
X100.236Y-169.8
X100.871Y-134.875
X100.871Y-148.845
X101.506Y-160.275
X101.506Y-169.8
X102.141Y-134.875
X102.141Y-148.845
X102.141Y-150.75
X102.75Y-149.454
X102.776Y-169.8
X103.411Y-129.16
X103.411Y-134.875
X103.411Y-183.135
X109.126Y-134.24
X109.126Y-178.055
T2
X53.246Y-130.43
X53.246Y-132.97
X55.786Y-130.43
X55.786Y-132.97
X58.326Y-130.43
X58.326Y-132.97
X60.866Y-130.43
X60.866Y-132.97
X63.406Y-130.43
X63.406Y-132.97
X65.946Y-130.43
X65.946Y-132.97
X68.486Y-130.43
X68.486Y-132.97
X71.026Y-130.43
X71.026Y-132.97
X73.566Y-130.43
X73.566Y-132.97
X76.106Y-130.43
X76.106Y-132.97
X78.646Y-130.43
X78.646Y-132.97
X81.186Y-130.43
X81.186Y-132.97
X83.726Y-130.43
X83.726Y-132.97
X86.266Y-130.43
X86.266Y-132.97
X88.806Y-130.43
X88.806Y-132.97
X91.346Y-130.43
X91.346Y-132.97
X93.886Y-130.43
X93.886Y-132.97
X96.426Y-130.43
X96.426Y-132.97
X98.966Y-130.43
X98.966Y-132.97
X101.506Y-130.43
X101.506Y-132.97
X53.881Y-172.34
X53.881Y-174.88
X56.421Y-172.34
X56.421Y-174.88
X58.961Y-172.34
X58.961Y-174.88
X61.501Y-172.34
X61.501Y-174.88
X64.041Y-172.34
X64.041Y-174.88
X66.581Y-172.34
X66.581Y-174.88
X69.121Y-172.34
X69.121Y-174.88
X71.661Y-172.34
X71.661Y-174.88
X74.201Y-172.34
X74.201Y-174.88
X76.741Y-172.34
X76.741Y-174.88
X79.281Y-172.34
X79.281Y-174.88
X81.821Y-172.34
X81.821Y-174.88
X84.361Y-172.34
X84.361Y-174.88
X86.901Y-172.34
X86.901Y-174.88
X89.441Y-172.34
X89.441Y-174.88
X91.981Y-172.34
X91.981Y-174.88
X94.521Y-172.34
X94.521Y-174.88
X97.061Y-172.34
X97.061Y-174.88
X99.601Y-172.34
X99.601Y-174.88
X102.141Y-172.34
X102.141Y-174.88
T0
M30
