%TF.GenerationSoftware,KiCad,Pcbnew,5.1.6*%
%TF.CreationDate,2020-08-12T10:28:14+02:00*%
%TF.ProjectId,ATAPIHat-SMI,41544150-4948-4617-942d-534d492e6b69,rev?*%
%TF.SameCoordinates,Original*%
%TF.FileFunction,Soldermask,Top*%
%TF.FilePolarity,Negative*%
%FSLAX46Y46*%
G04 Gerber Fmt 4.6, Leading zero omitted, Abs format (unit mm)*
G04 Created by KiCad (PCBNEW 5.1.6) date 2020-08-12 10:28:14*
%MOMM*%
%LPD*%
G01*
G04 APERTURE LIST*
%ADD10C,0.300000*%
%ADD11C,6.200000*%
%ADD12C,1.800000*%
%ADD13R,1.100000X1.600000*%
%ADD14R,1.800000X1.800000*%
%ADD15O,1.800000X1.800000*%
G04 APERTURE END LIST*
D10*
X78614285Y-180007142D02*
X79757142Y-180007142D01*
X79042857Y-179007142D02*
X79042857Y-181578571D01*
X79185714Y-181864285D01*
X79471428Y-182007142D01*
X79757142Y-182007142D01*
X80757142Y-182007142D02*
X80757142Y-179007142D01*
X80757142Y-180150000D02*
X81042857Y-180007142D01*
X81614285Y-180007142D01*
X81900000Y-180150000D01*
X82042857Y-180292857D01*
X82185714Y-180578571D01*
X82185714Y-181435714D01*
X82042857Y-181721428D01*
X81900000Y-181864285D01*
X81614285Y-182007142D01*
X81042857Y-182007142D01*
X80757142Y-181864285D01*
X83328571Y-181864285D02*
X83614285Y-182007142D01*
X84185714Y-182007142D01*
X84471428Y-181864285D01*
X84614285Y-181578571D01*
X84614285Y-181435714D01*
X84471428Y-181150000D01*
X84185714Y-181007142D01*
X83757142Y-181007142D01*
X83471428Y-180864285D01*
X83328571Y-180578571D01*
X83328571Y-180435714D01*
X83471428Y-180150000D01*
X83757142Y-180007142D01*
X84185714Y-180007142D01*
X84471428Y-180150000D01*
X85900000Y-180007142D02*
X85900000Y-183007142D01*
X85900000Y-180150000D02*
X86185714Y-180007142D01*
X86757142Y-180007142D01*
X87042857Y-180150000D01*
X87185714Y-180292857D01*
X87328571Y-180578571D01*
X87328571Y-181435714D01*
X87185714Y-181721428D01*
X87042857Y-181864285D01*
X86757142Y-182007142D01*
X86185714Y-182007142D01*
X85900000Y-181864285D01*
X89900000Y-182007142D02*
X89900000Y-180435714D01*
X89757142Y-180150000D01*
X89471428Y-180007142D01*
X88900000Y-180007142D01*
X88614285Y-180150000D01*
X89900000Y-181864285D02*
X89614285Y-182007142D01*
X88900000Y-182007142D01*
X88614285Y-181864285D01*
X88471428Y-181578571D01*
X88471428Y-181292857D01*
X88614285Y-181007142D01*
X88900000Y-180864285D01*
X89614285Y-180864285D01*
X89900000Y-180721428D01*
X92614285Y-181864285D02*
X92328571Y-182007142D01*
X91757142Y-182007142D01*
X91471428Y-181864285D01*
X91328571Y-181721428D01*
X91185714Y-181435714D01*
X91185714Y-180578571D01*
X91328571Y-180292857D01*
X91471428Y-180150000D01*
X91757142Y-180007142D01*
X92328571Y-180007142D01*
X92614285Y-180150000D01*
X95042857Y-181864285D02*
X94757142Y-182007142D01*
X94185714Y-182007142D01*
X93900000Y-181864285D01*
X93757142Y-181578571D01*
X93757142Y-180435714D01*
X93900000Y-180150000D01*
X94185714Y-180007142D01*
X94757142Y-180007142D01*
X95042857Y-180150000D01*
X95185714Y-180435714D01*
X95185714Y-180721428D01*
X93757142Y-181007142D01*
X96471428Y-181721428D02*
X96614285Y-181864285D01*
X96471428Y-182007142D01*
X96328571Y-181864285D01*
X96471428Y-181721428D01*
X96471428Y-182007142D01*
X99185714Y-182007142D02*
X99185714Y-179007142D01*
X99185714Y-181864285D02*
X98900000Y-182007142D01*
X98328571Y-182007142D01*
X98042857Y-181864285D01*
X97900000Y-181721428D01*
X97757142Y-181435714D01*
X97757142Y-180578571D01*
X97900000Y-180292857D01*
X98042857Y-180150000D01*
X98328571Y-180007142D01*
X98900000Y-180007142D01*
X99185714Y-180150000D01*
X101757142Y-181864285D02*
X101471428Y-182007142D01*
X100900000Y-182007142D01*
X100614285Y-181864285D01*
X100471428Y-181578571D01*
X100471428Y-180435714D01*
X100614285Y-180150000D01*
X100900000Y-180007142D01*
X101471428Y-180007142D01*
X101757142Y-180150000D01*
X101900000Y-180435714D01*
X101900000Y-180721428D01*
X100471428Y-181007142D01*
D11*
%TO.C,*%
X48392628Y-131655876D03*
%TD*%
%TO.C,*%
X106392628Y-180655875D03*
%TD*%
%TO.C,*%
X48392627Y-180655877D03*
%TD*%
%TO.C,*%
X106392628Y-131655876D03*
%TD*%
%TO.C,C2*%
G36*
G01*
X79200000Y-167981250D02*
X79200000Y-167018750D01*
G75*
G02*
X79468750Y-166750000I268750J0D01*
G01*
X80006250Y-166750000D01*
G75*
G02*
X80275000Y-167018750I0J-268750D01*
G01*
X80275000Y-167981250D01*
G75*
G02*
X80006250Y-168250000I-268750J0D01*
G01*
X79468750Y-168250000D01*
G75*
G02*
X79200000Y-167981250I0J268750D01*
G01*
G37*
G36*
G01*
X77325000Y-167981250D02*
X77325000Y-167018750D01*
G75*
G02*
X77593750Y-166750000I268750J0D01*
G01*
X78131250Y-166750000D01*
G75*
G02*
X78400000Y-167018750I0J-268750D01*
G01*
X78400000Y-167981250D01*
G75*
G02*
X78131250Y-168250000I-268750J0D01*
G01*
X77593750Y-168250000D01*
G75*
G02*
X77325000Y-167981250I0J268750D01*
G01*
G37*
%TD*%
%TO.C,C1*%
G36*
G01*
X77173128Y-142284876D02*
X77568128Y-142284876D01*
G75*
G02*
X77740628Y-142457376I0J-172500D01*
G01*
X77740628Y-142802376D01*
G75*
G02*
X77568128Y-142974876I-172500J0D01*
G01*
X77173128Y-142974876D01*
G75*
G02*
X77000628Y-142802376I0J172500D01*
G01*
X77000628Y-142457376D01*
G75*
G02*
X77173128Y-142284876I172500J0D01*
G01*
G37*
G36*
G01*
X77173128Y-141314876D02*
X77568128Y-141314876D01*
G75*
G02*
X77740628Y-141487376I0J-172500D01*
G01*
X77740628Y-141832376D01*
G75*
G02*
X77568128Y-142004876I-172500J0D01*
G01*
X77173128Y-142004876D01*
G75*
G02*
X77000628Y-141832376I0J172500D01*
G01*
X77000628Y-141487376D01*
G75*
G02*
X77173128Y-141314876I172500J0D01*
G01*
G37*
%TD*%
D12*
%TO.C,J2*%
X53880628Y-174879876D03*
X56420628Y-174879876D03*
X58960628Y-174879876D03*
X61500628Y-174879876D03*
X64040628Y-174879876D03*
X66580628Y-174879876D03*
X69120628Y-174879876D03*
X71660628Y-174879876D03*
X74200628Y-174879876D03*
X76740628Y-174879876D03*
X79280628Y-174879876D03*
X81820628Y-174879876D03*
X84360628Y-174879876D03*
X86900628Y-174879876D03*
X89440628Y-174879876D03*
X91980628Y-174879876D03*
X94520628Y-174879876D03*
X97060628Y-174879876D03*
X99600628Y-174879876D03*
X102140628Y-174879876D03*
X53880628Y-172339876D03*
X56420628Y-172339876D03*
X58960628Y-172339876D03*
X61500628Y-172339876D03*
X64040628Y-172339876D03*
X66580628Y-172339876D03*
X69120628Y-172339876D03*
X71660628Y-172339876D03*
X74200628Y-172339876D03*
X76740628Y-172339876D03*
X79280628Y-172339876D03*
X81820628Y-172339876D03*
X84360628Y-172339876D03*
X86900628Y-172339876D03*
X89440628Y-172339876D03*
X91980628Y-172339876D03*
X94520628Y-172339876D03*
X97060628Y-172339876D03*
X99600628Y-172339876D03*
G36*
G01*
X101505334Y-171439876D02*
X102775922Y-171439876D01*
G75*
G02*
X103040628Y-171704582I0J-264706D01*
G01*
X103040628Y-172975170D01*
G75*
G02*
X102775922Y-173239876I-264706J0D01*
G01*
X101505334Y-173239876D01*
G75*
G02*
X101240628Y-172975170I0J264706D01*
G01*
X101240628Y-171704582D01*
G75*
G02*
X101505334Y-171439876I264706J0D01*
G01*
G37*
%TD*%
%TO.C,R33*%
G36*
G01*
X94097500Y-136060000D02*
X93702500Y-136060000D01*
G75*
G02*
X93530000Y-135887500I0J172500D01*
G01*
X93530000Y-135542500D01*
G75*
G02*
X93702500Y-135370000I172500J0D01*
G01*
X94097500Y-135370000D01*
G75*
G02*
X94270000Y-135542500I0J-172500D01*
G01*
X94270000Y-135887500D01*
G75*
G02*
X94097500Y-136060000I-172500J0D01*
G01*
G37*
G36*
G01*
X94097500Y-137030000D02*
X93702500Y-137030000D01*
G75*
G02*
X93530000Y-136857500I0J172500D01*
G01*
X93530000Y-136512500D01*
G75*
G02*
X93702500Y-136340000I172500J0D01*
G01*
X94097500Y-136340000D01*
G75*
G02*
X94270000Y-136512500I0J-172500D01*
G01*
X94270000Y-136857500D01*
G75*
G02*
X94097500Y-137030000I-172500J0D01*
G01*
G37*
%TD*%
%TO.C,R32*%
G36*
G01*
X81397500Y-136060000D02*
X81002500Y-136060000D01*
G75*
G02*
X80830000Y-135887500I0J172500D01*
G01*
X80830000Y-135542500D01*
G75*
G02*
X81002500Y-135370000I172500J0D01*
G01*
X81397500Y-135370000D01*
G75*
G02*
X81570000Y-135542500I0J-172500D01*
G01*
X81570000Y-135887500D01*
G75*
G02*
X81397500Y-136060000I-172500J0D01*
G01*
G37*
G36*
G01*
X81397500Y-137030000D02*
X81002500Y-137030000D01*
G75*
G02*
X80830000Y-136857500I0J172500D01*
G01*
X80830000Y-136512500D01*
G75*
G02*
X81002500Y-136340000I172500J0D01*
G01*
X81397500Y-136340000D01*
G75*
G02*
X81570000Y-136512500I0J-172500D01*
G01*
X81570000Y-136857500D01*
G75*
G02*
X81397500Y-137030000I-172500J0D01*
G01*
G37*
%TD*%
%TO.C,R31*%
G36*
G01*
X78897500Y-136060000D02*
X78502500Y-136060000D01*
G75*
G02*
X78330000Y-135887500I0J172500D01*
G01*
X78330000Y-135542500D01*
G75*
G02*
X78502500Y-135370000I172500J0D01*
G01*
X78897500Y-135370000D01*
G75*
G02*
X79070000Y-135542500I0J-172500D01*
G01*
X79070000Y-135887500D01*
G75*
G02*
X78897500Y-136060000I-172500J0D01*
G01*
G37*
G36*
G01*
X78897500Y-137030000D02*
X78502500Y-137030000D01*
G75*
G02*
X78330000Y-136857500I0J172500D01*
G01*
X78330000Y-136512500D01*
G75*
G02*
X78502500Y-136340000I172500J0D01*
G01*
X78897500Y-136340000D01*
G75*
G02*
X79070000Y-136512500I0J-172500D01*
G01*
X79070000Y-136857500D01*
G75*
G02*
X78897500Y-137030000I-172500J0D01*
G01*
G37*
%TD*%
%TO.C,R30*%
G36*
G01*
X85197500Y-138860000D02*
X84802500Y-138860000D01*
G75*
G02*
X84630000Y-138687500I0J172500D01*
G01*
X84630000Y-138342500D01*
G75*
G02*
X84802500Y-138170000I172500J0D01*
G01*
X85197500Y-138170000D01*
G75*
G02*
X85370000Y-138342500I0J-172500D01*
G01*
X85370000Y-138687500D01*
G75*
G02*
X85197500Y-138860000I-172500J0D01*
G01*
G37*
G36*
G01*
X85197500Y-139830000D02*
X84802500Y-139830000D01*
G75*
G02*
X84630000Y-139657500I0J172500D01*
G01*
X84630000Y-139312500D01*
G75*
G02*
X84802500Y-139140000I172500J0D01*
G01*
X85197500Y-139140000D01*
G75*
G02*
X85370000Y-139312500I0J-172500D01*
G01*
X85370000Y-139657500D01*
G75*
G02*
X85197500Y-139830000I-172500J0D01*
G01*
G37*
%TD*%
%TO.C,R29*%
G36*
G01*
X88997500Y-136060000D02*
X88602500Y-136060000D01*
G75*
G02*
X88430000Y-135887500I0J172500D01*
G01*
X88430000Y-135542500D01*
G75*
G02*
X88602500Y-135370000I172500J0D01*
G01*
X88997500Y-135370000D01*
G75*
G02*
X89170000Y-135542500I0J-172500D01*
G01*
X89170000Y-135887500D01*
G75*
G02*
X88997500Y-136060000I-172500J0D01*
G01*
G37*
G36*
G01*
X88997500Y-137030000D02*
X88602500Y-137030000D01*
G75*
G02*
X88430000Y-136857500I0J172500D01*
G01*
X88430000Y-136512500D01*
G75*
G02*
X88602500Y-136340000I172500J0D01*
G01*
X88997500Y-136340000D01*
G75*
G02*
X89170000Y-136512500I0J-172500D01*
G01*
X89170000Y-136857500D01*
G75*
G02*
X88997500Y-137030000I-172500J0D01*
G01*
G37*
%TD*%
%TO.C,R28*%
G36*
G01*
X58547500Y-136060000D02*
X58152500Y-136060000D01*
G75*
G02*
X57980000Y-135887500I0J172500D01*
G01*
X57980000Y-135542500D01*
G75*
G02*
X58152500Y-135370000I172500J0D01*
G01*
X58547500Y-135370000D01*
G75*
G02*
X58720000Y-135542500I0J-172500D01*
G01*
X58720000Y-135887500D01*
G75*
G02*
X58547500Y-136060000I-172500J0D01*
G01*
G37*
G36*
G01*
X58547500Y-137030000D02*
X58152500Y-137030000D01*
G75*
G02*
X57980000Y-136857500I0J172500D01*
G01*
X57980000Y-136512500D01*
G75*
G02*
X58152500Y-136340000I172500J0D01*
G01*
X58547500Y-136340000D01*
G75*
G02*
X58720000Y-136512500I0J-172500D01*
G01*
X58720000Y-136857500D01*
G75*
G02*
X58547500Y-137030000I-172500J0D01*
G01*
G37*
%TD*%
%TO.C,R27*%
G36*
G01*
X87302500Y-139140000D02*
X87697500Y-139140000D01*
G75*
G02*
X87870000Y-139312500I0J-172500D01*
G01*
X87870000Y-139657500D01*
G75*
G02*
X87697500Y-139830000I-172500J0D01*
G01*
X87302500Y-139830000D01*
G75*
G02*
X87130000Y-139657500I0J172500D01*
G01*
X87130000Y-139312500D01*
G75*
G02*
X87302500Y-139140000I172500J0D01*
G01*
G37*
G36*
G01*
X87302500Y-138170000D02*
X87697500Y-138170000D01*
G75*
G02*
X87870000Y-138342500I0J-172500D01*
G01*
X87870000Y-138687500D01*
G75*
G02*
X87697500Y-138860000I-172500J0D01*
G01*
X87302500Y-138860000D01*
G75*
G02*
X87130000Y-138687500I0J172500D01*
G01*
X87130000Y-138342500D01*
G75*
G02*
X87302500Y-138170000I172500J0D01*
G01*
G37*
%TD*%
%TO.C,R26*%
G36*
G01*
X92797500Y-138860000D02*
X92402500Y-138860000D01*
G75*
G02*
X92230000Y-138687500I0J172500D01*
G01*
X92230000Y-138342500D01*
G75*
G02*
X92402500Y-138170000I172500J0D01*
G01*
X92797500Y-138170000D01*
G75*
G02*
X92970000Y-138342500I0J-172500D01*
G01*
X92970000Y-138687500D01*
G75*
G02*
X92797500Y-138860000I-172500J0D01*
G01*
G37*
G36*
G01*
X92797500Y-139830000D02*
X92402500Y-139830000D01*
G75*
G02*
X92230000Y-139657500I0J172500D01*
G01*
X92230000Y-139312500D01*
G75*
G02*
X92402500Y-139140000I172500J0D01*
G01*
X92797500Y-139140000D01*
G75*
G02*
X92970000Y-139312500I0J-172500D01*
G01*
X92970000Y-139657500D01*
G75*
G02*
X92797500Y-139830000I-172500J0D01*
G01*
G37*
%TD*%
%TO.C,R25*%
G36*
G01*
X76297500Y-136060000D02*
X75902500Y-136060000D01*
G75*
G02*
X75730000Y-135887500I0J172500D01*
G01*
X75730000Y-135542500D01*
G75*
G02*
X75902500Y-135370000I172500J0D01*
G01*
X76297500Y-135370000D01*
G75*
G02*
X76470000Y-135542500I0J-172500D01*
G01*
X76470000Y-135887500D01*
G75*
G02*
X76297500Y-136060000I-172500J0D01*
G01*
G37*
G36*
G01*
X76297500Y-137030000D02*
X75902500Y-137030000D01*
G75*
G02*
X75730000Y-136857500I0J172500D01*
G01*
X75730000Y-136512500D01*
G75*
G02*
X75902500Y-136340000I172500J0D01*
G01*
X76297500Y-136340000D01*
G75*
G02*
X76470000Y-136512500I0J-172500D01*
G01*
X76470000Y-136857500D01*
G75*
G02*
X76297500Y-137030000I-172500J0D01*
G01*
G37*
%TD*%
%TO.C,R24*%
G36*
G01*
X82647500Y-138860000D02*
X82252500Y-138860000D01*
G75*
G02*
X82080000Y-138687500I0J172500D01*
G01*
X82080000Y-138342500D01*
G75*
G02*
X82252500Y-138170000I172500J0D01*
G01*
X82647500Y-138170000D01*
G75*
G02*
X82820000Y-138342500I0J-172500D01*
G01*
X82820000Y-138687500D01*
G75*
G02*
X82647500Y-138860000I-172500J0D01*
G01*
G37*
G36*
G01*
X82647500Y-139830000D02*
X82252500Y-139830000D01*
G75*
G02*
X82080000Y-139657500I0J172500D01*
G01*
X82080000Y-139312500D01*
G75*
G02*
X82252500Y-139140000I172500J0D01*
G01*
X82647500Y-139140000D01*
G75*
G02*
X82820000Y-139312500I0J-172500D01*
G01*
X82820000Y-139657500D01*
G75*
G02*
X82647500Y-139830000I-172500J0D01*
G01*
G37*
%TD*%
%TO.C,R23*%
G36*
G01*
X91597500Y-136060000D02*
X91202500Y-136060000D01*
G75*
G02*
X91030000Y-135887500I0J172500D01*
G01*
X91030000Y-135542500D01*
G75*
G02*
X91202500Y-135370000I172500J0D01*
G01*
X91597500Y-135370000D01*
G75*
G02*
X91770000Y-135542500I0J-172500D01*
G01*
X91770000Y-135887500D01*
G75*
G02*
X91597500Y-136060000I-172500J0D01*
G01*
G37*
G36*
G01*
X91597500Y-137030000D02*
X91202500Y-137030000D01*
G75*
G02*
X91030000Y-136857500I0J172500D01*
G01*
X91030000Y-136512500D01*
G75*
G02*
X91202500Y-136340000I172500J0D01*
G01*
X91597500Y-136340000D01*
G75*
G02*
X91770000Y-136512500I0J-172500D01*
G01*
X91770000Y-136857500D01*
G75*
G02*
X91597500Y-137030000I-172500J0D01*
G01*
G37*
%TD*%
%TO.C,R22*%
G36*
G01*
X61097500Y-136060000D02*
X60702500Y-136060000D01*
G75*
G02*
X60530000Y-135887500I0J172500D01*
G01*
X60530000Y-135542500D01*
G75*
G02*
X60702500Y-135370000I172500J0D01*
G01*
X61097500Y-135370000D01*
G75*
G02*
X61270000Y-135542500I0J-172500D01*
G01*
X61270000Y-135887500D01*
G75*
G02*
X61097500Y-136060000I-172500J0D01*
G01*
G37*
G36*
G01*
X61097500Y-137030000D02*
X60702500Y-137030000D01*
G75*
G02*
X60530000Y-136857500I0J172500D01*
G01*
X60530000Y-136512500D01*
G75*
G02*
X60702500Y-136340000I172500J0D01*
G01*
X61097500Y-136340000D01*
G75*
G02*
X61270000Y-136512500I0J-172500D01*
G01*
X61270000Y-136857500D01*
G75*
G02*
X61097500Y-137030000I-172500J0D01*
G01*
G37*
%TD*%
%TO.C,R21*%
G36*
G01*
X55997500Y-136060000D02*
X55602500Y-136060000D01*
G75*
G02*
X55430000Y-135887500I0J172500D01*
G01*
X55430000Y-135542500D01*
G75*
G02*
X55602500Y-135370000I172500J0D01*
G01*
X55997500Y-135370000D01*
G75*
G02*
X56170000Y-135542500I0J-172500D01*
G01*
X56170000Y-135887500D01*
G75*
G02*
X55997500Y-136060000I-172500J0D01*
G01*
G37*
G36*
G01*
X55997500Y-137030000D02*
X55602500Y-137030000D01*
G75*
G02*
X55430000Y-136857500I0J172500D01*
G01*
X55430000Y-136512500D01*
G75*
G02*
X55602500Y-136340000I172500J0D01*
G01*
X55997500Y-136340000D01*
G75*
G02*
X56170000Y-136512500I0J-172500D01*
G01*
X56170000Y-136857500D01*
G75*
G02*
X55997500Y-137030000I-172500J0D01*
G01*
G37*
%TD*%
%TO.C,R20*%
G36*
G01*
X86497500Y-136060000D02*
X86102500Y-136060000D01*
G75*
G02*
X85930000Y-135887500I0J172500D01*
G01*
X85930000Y-135542500D01*
G75*
G02*
X86102500Y-135370000I172500J0D01*
G01*
X86497500Y-135370000D01*
G75*
G02*
X86670000Y-135542500I0J-172500D01*
G01*
X86670000Y-135887500D01*
G75*
G02*
X86497500Y-136060000I-172500J0D01*
G01*
G37*
G36*
G01*
X86497500Y-137030000D02*
X86102500Y-137030000D01*
G75*
G02*
X85930000Y-136857500I0J172500D01*
G01*
X85930000Y-136512500D01*
G75*
G02*
X86102500Y-136340000I172500J0D01*
G01*
X86497500Y-136340000D01*
G75*
G02*
X86670000Y-136512500I0J-172500D01*
G01*
X86670000Y-136857500D01*
G75*
G02*
X86497500Y-137030000I-172500J0D01*
G01*
G37*
%TD*%
%TO.C,R19*%
G36*
G01*
X83527500Y-136340000D02*
X83922500Y-136340000D01*
G75*
G02*
X84095000Y-136512500I0J-172500D01*
G01*
X84095000Y-136857500D01*
G75*
G02*
X83922500Y-137030000I-172500J0D01*
G01*
X83527500Y-137030000D01*
G75*
G02*
X83355000Y-136857500I0J172500D01*
G01*
X83355000Y-136512500D01*
G75*
G02*
X83527500Y-136340000I172500J0D01*
G01*
G37*
G36*
G01*
X83527500Y-135370000D02*
X83922500Y-135370000D01*
G75*
G02*
X84095000Y-135542500I0J-172500D01*
G01*
X84095000Y-135887500D01*
G75*
G02*
X83922500Y-136060000I-172500J0D01*
G01*
X83527500Y-136060000D01*
G75*
G02*
X83355000Y-135887500I0J172500D01*
G01*
X83355000Y-135542500D01*
G75*
G02*
X83527500Y-135370000I172500J0D01*
G01*
G37*
%TD*%
%TO.C,R18*%
G36*
G01*
X69527500Y-136334876D02*
X69922500Y-136334876D01*
G75*
G02*
X70095000Y-136507376I0J-172500D01*
G01*
X70095000Y-136852376D01*
G75*
G02*
X69922500Y-137024876I-172500J0D01*
G01*
X69527500Y-137024876D01*
G75*
G02*
X69355000Y-136852376I0J172500D01*
G01*
X69355000Y-136507376D01*
G75*
G02*
X69527500Y-136334876I172500J0D01*
G01*
G37*
G36*
G01*
X69527500Y-135364876D02*
X69922500Y-135364876D01*
G75*
G02*
X70095000Y-135537376I0J-172500D01*
G01*
X70095000Y-135882376D01*
G75*
G02*
X69922500Y-136054876I-172500J0D01*
G01*
X69527500Y-136054876D01*
G75*
G02*
X69355000Y-135882376I0J172500D01*
G01*
X69355000Y-135537376D01*
G75*
G02*
X69527500Y-135364876I172500J0D01*
G01*
G37*
%TD*%
%TO.C,R17*%
G36*
G01*
X77547500Y-138860000D02*
X77152500Y-138860000D01*
G75*
G02*
X76980000Y-138687500I0J172500D01*
G01*
X76980000Y-138342500D01*
G75*
G02*
X77152500Y-138170000I172500J0D01*
G01*
X77547500Y-138170000D01*
G75*
G02*
X77720000Y-138342500I0J-172500D01*
G01*
X77720000Y-138687500D01*
G75*
G02*
X77547500Y-138860000I-172500J0D01*
G01*
G37*
G36*
G01*
X77547500Y-139830000D02*
X77152500Y-139830000D01*
G75*
G02*
X76980000Y-139657500I0J172500D01*
G01*
X76980000Y-139312500D01*
G75*
G02*
X77152500Y-139140000I172500J0D01*
G01*
X77547500Y-139140000D01*
G75*
G02*
X77720000Y-139312500I0J-172500D01*
G01*
X77720000Y-139657500D01*
G75*
G02*
X77547500Y-139830000I-172500J0D01*
G01*
G37*
%TD*%
%TO.C,R16*%
G36*
G01*
X63202500Y-139140000D02*
X63597500Y-139140000D01*
G75*
G02*
X63770000Y-139312500I0J-172500D01*
G01*
X63770000Y-139657500D01*
G75*
G02*
X63597500Y-139830000I-172500J0D01*
G01*
X63202500Y-139830000D01*
G75*
G02*
X63030000Y-139657500I0J172500D01*
G01*
X63030000Y-139312500D01*
G75*
G02*
X63202500Y-139140000I172500J0D01*
G01*
G37*
G36*
G01*
X63202500Y-138170000D02*
X63597500Y-138170000D01*
G75*
G02*
X63770000Y-138342500I0J-172500D01*
G01*
X63770000Y-138687500D01*
G75*
G02*
X63597500Y-138860000I-172500J0D01*
G01*
X63202500Y-138860000D01*
G75*
G02*
X63030000Y-138687500I0J172500D01*
G01*
X63030000Y-138342500D01*
G75*
G02*
X63202500Y-138170000I172500J0D01*
G01*
G37*
%TD*%
%TO.C,R15*%
G36*
G01*
X99197500Y-136060000D02*
X98802500Y-136060000D01*
G75*
G02*
X98630000Y-135887500I0J172500D01*
G01*
X98630000Y-135542500D01*
G75*
G02*
X98802500Y-135370000I172500J0D01*
G01*
X99197500Y-135370000D01*
G75*
G02*
X99370000Y-135542500I0J-172500D01*
G01*
X99370000Y-135887500D01*
G75*
G02*
X99197500Y-136060000I-172500J0D01*
G01*
G37*
G36*
G01*
X99197500Y-137030000D02*
X98802500Y-137030000D01*
G75*
G02*
X98630000Y-136857500I0J172500D01*
G01*
X98630000Y-136512500D01*
G75*
G02*
X98802500Y-136340000I172500J0D01*
G01*
X99197500Y-136340000D01*
G75*
G02*
X99370000Y-136512500I0J-172500D01*
G01*
X99370000Y-136857500D01*
G75*
G02*
X99197500Y-137030000I-172500J0D01*
G01*
G37*
%TD*%
%TO.C,R14*%
G36*
G01*
X74602500Y-139140000D02*
X74997500Y-139140000D01*
G75*
G02*
X75170000Y-139312500I0J-172500D01*
G01*
X75170000Y-139657500D01*
G75*
G02*
X74997500Y-139830000I-172500J0D01*
G01*
X74602500Y-139830000D01*
G75*
G02*
X74430000Y-139657500I0J172500D01*
G01*
X74430000Y-139312500D01*
G75*
G02*
X74602500Y-139140000I172500J0D01*
G01*
G37*
G36*
G01*
X74602500Y-138170000D02*
X74997500Y-138170000D01*
G75*
G02*
X75170000Y-138342500I0J-172500D01*
G01*
X75170000Y-138687500D01*
G75*
G02*
X74997500Y-138860000I-172500J0D01*
G01*
X74602500Y-138860000D01*
G75*
G02*
X74430000Y-138687500I0J172500D01*
G01*
X74430000Y-138342500D01*
G75*
G02*
X74602500Y-138170000I172500J0D01*
G01*
G37*
%TD*%
%TO.C,R13*%
G36*
G01*
X71197500Y-136060000D02*
X70802500Y-136060000D01*
G75*
G02*
X70630000Y-135887500I0J172500D01*
G01*
X70630000Y-135542500D01*
G75*
G02*
X70802500Y-135370000I172500J0D01*
G01*
X71197500Y-135370000D01*
G75*
G02*
X71370000Y-135542500I0J-172500D01*
G01*
X71370000Y-135887500D01*
G75*
G02*
X71197500Y-136060000I-172500J0D01*
G01*
G37*
G36*
G01*
X71197500Y-137030000D02*
X70802500Y-137030000D01*
G75*
G02*
X70630000Y-136857500I0J172500D01*
G01*
X70630000Y-136512500D01*
G75*
G02*
X70802500Y-136340000I172500J0D01*
G01*
X71197500Y-136340000D01*
G75*
G02*
X71370000Y-136512500I0J-172500D01*
G01*
X71370000Y-136857500D01*
G75*
G02*
X71197500Y-137030000I-172500J0D01*
G01*
G37*
%TD*%
%TO.C,R12*%
G36*
G01*
X100397500Y-138860000D02*
X100002500Y-138860000D01*
G75*
G02*
X99830000Y-138687500I0J172500D01*
G01*
X99830000Y-138342500D01*
G75*
G02*
X100002500Y-138170000I172500J0D01*
G01*
X100397500Y-138170000D01*
G75*
G02*
X100570000Y-138342500I0J-172500D01*
G01*
X100570000Y-138687500D01*
G75*
G02*
X100397500Y-138860000I-172500J0D01*
G01*
G37*
G36*
G01*
X100397500Y-139830000D02*
X100002500Y-139830000D01*
G75*
G02*
X99830000Y-139657500I0J172500D01*
G01*
X99830000Y-139312500D01*
G75*
G02*
X100002500Y-139140000I172500J0D01*
G01*
X100397500Y-139140000D01*
G75*
G02*
X100570000Y-139312500I0J-172500D01*
G01*
X100570000Y-139657500D01*
G75*
G02*
X100397500Y-139830000I-172500J0D01*
G01*
G37*
%TD*%
D13*
%TO.C,J3*%
X51975628Y-141859876D03*
X50675628Y-141859876D03*
X53275628Y-141859876D03*
%TD*%
%TO.C,R11*%
G36*
G01*
X67397500Y-138860000D02*
X67002500Y-138860000D01*
G75*
G02*
X66830000Y-138687500I0J172500D01*
G01*
X66830000Y-138342500D01*
G75*
G02*
X67002500Y-138170000I172500J0D01*
G01*
X67397500Y-138170000D01*
G75*
G02*
X67570000Y-138342500I0J-172500D01*
G01*
X67570000Y-138687500D01*
G75*
G02*
X67397500Y-138860000I-172500J0D01*
G01*
G37*
G36*
G01*
X67397500Y-139830000D02*
X67002500Y-139830000D01*
G75*
G02*
X66830000Y-139657500I0J172500D01*
G01*
X66830000Y-139312500D01*
G75*
G02*
X67002500Y-139140000I172500J0D01*
G01*
X67397500Y-139140000D01*
G75*
G02*
X67570000Y-139312500I0J-172500D01*
G01*
X67570000Y-139657500D01*
G75*
G02*
X67397500Y-139830000I-172500J0D01*
G01*
G37*
%TD*%
%TO.C,R10*%
G36*
G01*
X97897500Y-138860000D02*
X97502500Y-138860000D01*
G75*
G02*
X97330000Y-138687500I0J172500D01*
G01*
X97330000Y-138342500D01*
G75*
G02*
X97502500Y-138170000I172500J0D01*
G01*
X97897500Y-138170000D01*
G75*
G02*
X98070000Y-138342500I0J-172500D01*
G01*
X98070000Y-138687500D01*
G75*
G02*
X97897500Y-138860000I-172500J0D01*
G01*
G37*
G36*
G01*
X97897500Y-139830000D02*
X97502500Y-139830000D01*
G75*
G02*
X97330000Y-139657500I0J172500D01*
G01*
X97330000Y-139312500D01*
G75*
G02*
X97502500Y-139140000I172500J0D01*
G01*
X97897500Y-139140000D01*
G75*
G02*
X98070000Y-139312500I0J-172500D01*
G01*
X98070000Y-139657500D01*
G75*
G02*
X97897500Y-139830000I-172500J0D01*
G01*
G37*
%TD*%
%TO.C,R9*%
G36*
G01*
X62297500Y-138860000D02*
X61902500Y-138860000D01*
G75*
G02*
X61730000Y-138687500I0J172500D01*
G01*
X61730000Y-138342500D01*
G75*
G02*
X61902500Y-138170000I172500J0D01*
G01*
X62297500Y-138170000D01*
G75*
G02*
X62470000Y-138342500I0J-172500D01*
G01*
X62470000Y-138687500D01*
G75*
G02*
X62297500Y-138860000I-172500J0D01*
G01*
G37*
G36*
G01*
X62297500Y-139830000D02*
X61902500Y-139830000D01*
G75*
G02*
X61730000Y-139657500I0J172500D01*
G01*
X61730000Y-139312500D01*
G75*
G02*
X61902500Y-139140000I172500J0D01*
G01*
X62297500Y-139140000D01*
G75*
G02*
X62470000Y-139312500I0J-172500D01*
G01*
X62470000Y-139657500D01*
G75*
G02*
X62297500Y-139830000I-172500J0D01*
G01*
G37*
%TD*%
%TO.C,R8*%
G36*
G01*
X68302500Y-136340000D02*
X68697500Y-136340000D01*
G75*
G02*
X68870000Y-136512500I0J-172500D01*
G01*
X68870000Y-136857500D01*
G75*
G02*
X68697500Y-137030000I-172500J0D01*
G01*
X68302500Y-137030000D01*
G75*
G02*
X68130000Y-136857500I0J172500D01*
G01*
X68130000Y-136512500D01*
G75*
G02*
X68302500Y-136340000I172500J0D01*
G01*
G37*
G36*
G01*
X68302500Y-135370000D02*
X68697500Y-135370000D01*
G75*
G02*
X68870000Y-135542500I0J-172500D01*
G01*
X68870000Y-135887500D01*
G75*
G02*
X68697500Y-136060000I-172500J0D01*
G01*
X68302500Y-136060000D01*
G75*
G02*
X68130000Y-135887500I0J172500D01*
G01*
X68130000Y-135542500D01*
G75*
G02*
X68302500Y-135370000I172500J0D01*
G01*
G37*
%TD*%
%TO.C,R7*%
G36*
G01*
X79702500Y-139140000D02*
X80097500Y-139140000D01*
G75*
G02*
X80270000Y-139312500I0J-172500D01*
G01*
X80270000Y-139657500D01*
G75*
G02*
X80097500Y-139830000I-172500J0D01*
G01*
X79702500Y-139830000D01*
G75*
G02*
X79530000Y-139657500I0J172500D01*
G01*
X79530000Y-139312500D01*
G75*
G02*
X79702500Y-139140000I172500J0D01*
G01*
G37*
G36*
G01*
X79702500Y-138170000D02*
X80097500Y-138170000D01*
G75*
G02*
X80270000Y-138342500I0J-172500D01*
G01*
X80270000Y-138687500D01*
G75*
G02*
X80097500Y-138860000I-172500J0D01*
G01*
X79702500Y-138860000D01*
G75*
G02*
X79530000Y-138687500I0J172500D01*
G01*
X79530000Y-138342500D01*
G75*
G02*
X79702500Y-138170000I172500J0D01*
G01*
G37*
%TD*%
%TO.C,R6*%
G36*
G01*
X72497500Y-138860000D02*
X72102500Y-138860000D01*
G75*
G02*
X71930000Y-138687500I0J172500D01*
G01*
X71930000Y-138342500D01*
G75*
G02*
X72102500Y-138170000I172500J0D01*
G01*
X72497500Y-138170000D01*
G75*
G02*
X72670000Y-138342500I0J-172500D01*
G01*
X72670000Y-138687500D01*
G75*
G02*
X72497500Y-138860000I-172500J0D01*
G01*
G37*
G36*
G01*
X72497500Y-139830000D02*
X72102500Y-139830000D01*
G75*
G02*
X71930000Y-139657500I0J172500D01*
G01*
X71930000Y-139312500D01*
G75*
G02*
X72102500Y-139140000I172500J0D01*
G01*
X72497500Y-139140000D01*
G75*
G02*
X72670000Y-139312500I0J-172500D01*
G01*
X72670000Y-139657500D01*
G75*
G02*
X72497500Y-139830000I-172500J0D01*
G01*
G37*
%TD*%
%TO.C,R5*%
G36*
G01*
X102947500Y-138860000D02*
X102552500Y-138860000D01*
G75*
G02*
X102380000Y-138687500I0J172500D01*
G01*
X102380000Y-138342500D01*
G75*
G02*
X102552500Y-138170000I172500J0D01*
G01*
X102947500Y-138170000D01*
G75*
G02*
X103120000Y-138342500I0J-172500D01*
G01*
X103120000Y-138687500D01*
G75*
G02*
X102947500Y-138860000I-172500J0D01*
G01*
G37*
G36*
G01*
X102947500Y-139830000D02*
X102552500Y-139830000D01*
G75*
G02*
X102380000Y-139657500I0J172500D01*
G01*
X102380000Y-139312500D01*
G75*
G02*
X102552500Y-139140000I172500J0D01*
G01*
X102947500Y-139140000D01*
G75*
G02*
X103120000Y-139312500I0J-172500D01*
G01*
X103120000Y-139657500D01*
G75*
G02*
X102947500Y-139830000I-172500J0D01*
G01*
G37*
%TD*%
%TO.C,R4*%
G36*
G01*
X96597500Y-136060000D02*
X96202500Y-136060000D01*
G75*
G02*
X96030000Y-135887500I0J172500D01*
G01*
X96030000Y-135542500D01*
G75*
G02*
X96202500Y-135370000I172500J0D01*
G01*
X96597500Y-135370000D01*
G75*
G02*
X96770000Y-135542500I0J-172500D01*
G01*
X96770000Y-135887500D01*
G75*
G02*
X96597500Y-136060000I-172500J0D01*
G01*
G37*
G36*
G01*
X96597500Y-137030000D02*
X96202500Y-137030000D01*
G75*
G02*
X96030000Y-136857500I0J172500D01*
G01*
X96030000Y-136512500D01*
G75*
G02*
X96202500Y-136340000I172500J0D01*
G01*
X96597500Y-136340000D01*
G75*
G02*
X96770000Y-136512500I0J-172500D01*
G01*
X96770000Y-136857500D01*
G75*
G02*
X96597500Y-137030000I-172500J0D01*
G01*
G37*
%TD*%
D14*
%TO.C,J1*%
X53245628Y-132969876D03*
D15*
X53245628Y-130429876D03*
X55785628Y-132969876D03*
X55785628Y-130429876D03*
X58325628Y-132969876D03*
X58325628Y-130429876D03*
X60865628Y-132969876D03*
X60865628Y-130429876D03*
X63405628Y-132969876D03*
X63405628Y-130429876D03*
X65945628Y-132969876D03*
X65945628Y-130429876D03*
X68485628Y-132969876D03*
X68485628Y-130429876D03*
X71025628Y-132969876D03*
X71025628Y-130429876D03*
X73565628Y-132969876D03*
X73565628Y-130429876D03*
X76105628Y-132969876D03*
X76105628Y-130429876D03*
X78645628Y-132969876D03*
X78645628Y-130429876D03*
X81185628Y-132969876D03*
X81185628Y-130429876D03*
X83725628Y-132969876D03*
X83725628Y-130429876D03*
X86265628Y-132969876D03*
X86265628Y-130429876D03*
X88805628Y-132969876D03*
X88805628Y-130429876D03*
X91345628Y-132969876D03*
X91345628Y-130429876D03*
X93885628Y-132969876D03*
X93885628Y-130429876D03*
X96425628Y-132969876D03*
X96425628Y-130429876D03*
X98965628Y-132969876D03*
X98965628Y-130429876D03*
X101505628Y-132969876D03*
X101505628Y-130429876D03*
%TD*%
%TO.C,R3*%
G36*
G01*
X52750628Y-180792376D02*
X52750628Y-180397376D01*
G75*
G02*
X52923128Y-180224876I172500J0D01*
G01*
X53268128Y-180224876D01*
G75*
G02*
X53440628Y-180397376I0J-172500D01*
G01*
X53440628Y-180792376D01*
G75*
G02*
X53268128Y-180964876I-172500J0D01*
G01*
X52923128Y-180964876D01*
G75*
G02*
X52750628Y-180792376I0J172500D01*
G01*
G37*
G36*
G01*
X51780628Y-180792376D02*
X51780628Y-180397376D01*
G75*
G02*
X51953128Y-180224876I172500J0D01*
G01*
X52298128Y-180224876D01*
G75*
G02*
X52470628Y-180397376I0J-172500D01*
G01*
X52470628Y-180792376D01*
G75*
G02*
X52298128Y-180964876I-172500J0D01*
G01*
X51953128Y-180964876D01*
G75*
G02*
X51780628Y-180792376I0J172500D01*
G01*
G37*
%TD*%
%TO.C,R2*%
G36*
G01*
X66197500Y-136060000D02*
X65802500Y-136060000D01*
G75*
G02*
X65630000Y-135887500I0J172500D01*
G01*
X65630000Y-135542500D01*
G75*
G02*
X65802500Y-135370000I172500J0D01*
G01*
X66197500Y-135370000D01*
G75*
G02*
X66370000Y-135542500I0J-172500D01*
G01*
X66370000Y-135887500D01*
G75*
G02*
X66197500Y-136060000I-172500J0D01*
G01*
G37*
G36*
G01*
X66197500Y-137030000D02*
X65802500Y-137030000D01*
G75*
G02*
X65630000Y-136857500I0J172500D01*
G01*
X65630000Y-136512500D01*
G75*
G02*
X65802500Y-136340000I172500J0D01*
G01*
X66197500Y-136340000D01*
G75*
G02*
X66370000Y-136512500I0J-172500D01*
G01*
X66370000Y-136857500D01*
G75*
G02*
X66197500Y-137030000I-172500J0D01*
G01*
G37*
%TD*%
%TO.C,R1*%
G36*
G01*
X64847500Y-138860000D02*
X64452500Y-138860000D01*
G75*
G02*
X64280000Y-138687500I0J172500D01*
G01*
X64280000Y-138342500D01*
G75*
G02*
X64452500Y-138170000I172500J0D01*
G01*
X64847500Y-138170000D01*
G75*
G02*
X65020000Y-138342500I0J-172500D01*
G01*
X65020000Y-138687500D01*
G75*
G02*
X64847500Y-138860000I-172500J0D01*
G01*
G37*
G36*
G01*
X64847500Y-139830000D02*
X64452500Y-139830000D01*
G75*
G02*
X64280000Y-139657500I0J172500D01*
G01*
X64280000Y-139312500D01*
G75*
G02*
X64452500Y-139140000I172500J0D01*
G01*
X64847500Y-139140000D01*
G75*
G02*
X65020000Y-139312500I0J-172500D01*
G01*
X65020000Y-139657500D01*
G75*
G02*
X64847500Y-139830000I-172500J0D01*
G01*
G37*
%TD*%
%TO.C,D1*%
G36*
G01*
X55935628Y-180876126D02*
X55935628Y-180313626D01*
G75*
G02*
X56179378Y-180069876I243750J0D01*
G01*
X56666878Y-180069876D01*
G75*
G02*
X56910628Y-180313626I0J-243750D01*
G01*
X56910628Y-180876126D01*
G75*
G02*
X56666878Y-181119876I-243750J0D01*
G01*
X56179378Y-181119876D01*
G75*
G02*
X55935628Y-180876126I0J243750D01*
G01*
G37*
G36*
G01*
X54360628Y-180876126D02*
X54360628Y-180313626D01*
G75*
G02*
X54604378Y-180069876I243750J0D01*
G01*
X55091878Y-180069876D01*
G75*
G02*
X55335628Y-180313626I0J-243750D01*
G01*
X55335628Y-180876126D01*
G75*
G02*
X55091878Y-181119876I-243750J0D01*
G01*
X54604378Y-181119876D01*
G75*
G02*
X54360628Y-180876126I0J243750D01*
G01*
G37*
%TD*%
M02*
