%TF.GenerationSoftware,KiCad,Pcbnew,5.1.6*%
%TF.CreationDate,2020-08-12T10:28:14+02:00*%
%TF.ProjectId,ATAPIHat-SMI,41544150-4948-4617-942d-534d492e6b69,rev?*%
%TF.SameCoordinates,Original*%
%TF.FileFunction,Legend,Top*%
%TF.FilePolarity,Positive*%
%FSLAX46Y46*%
G04 Gerber Fmt 4.6, Leading zero omitted, Abs format (unit mm)*
G04 Created by KiCad (PCBNEW 5.1.6) date 2020-08-12 10:28:14*
%MOMM*%
%LPD*%
G01*
G04 APERTURE LIST*
%ADD10C,0.150000*%
%ADD11C,0.200000*%
%ADD12C,0.300000*%
%ADD13C,0.120000*%
G04 APERTURE END LIST*
D10*
X48605151Y-141372256D02*
X48128961Y-141372256D01*
X48081342Y-141848447D01*
X48128961Y-141800828D01*
X48224199Y-141753209D01*
X48462294Y-141753209D01*
X48557532Y-141800828D01*
X48605151Y-141848447D01*
X48652770Y-141943685D01*
X48652770Y-142181780D01*
X48605151Y-142277018D01*
X48557532Y-142324637D01*
X48462294Y-142372256D01*
X48224199Y-142372256D01*
X48128961Y-142324637D01*
X48081342Y-142277018D01*
X48938485Y-141372256D02*
X49271818Y-142372256D01*
X49605151Y-141372256D01*
X54344437Y-141297256D02*
X54963485Y-141297256D01*
X54630151Y-141678209D01*
X54773008Y-141678209D01*
X54868247Y-141725828D01*
X54915866Y-141773447D01*
X54963485Y-141868685D01*
X54963485Y-142106780D01*
X54915866Y-142202018D01*
X54868247Y-142249637D01*
X54773008Y-142297256D01*
X54487294Y-142297256D01*
X54392056Y-142249637D01*
X54344437Y-142202018D01*
X55392056Y-142202018D02*
X55439675Y-142249637D01*
X55392056Y-142297256D01*
X55344437Y-142249637D01*
X55392056Y-142202018D01*
X55392056Y-142297256D01*
X55773008Y-141297256D02*
X56392056Y-141297256D01*
X56058723Y-141678209D01*
X56201580Y-141678209D01*
X56296818Y-141725828D01*
X56344437Y-141773447D01*
X56392056Y-141868685D01*
X56392056Y-142106780D01*
X56344437Y-142202018D01*
X56296818Y-142249637D01*
X56201580Y-142297256D01*
X55915866Y-142297256D01*
X55820628Y-142249637D01*
X55773008Y-142202018D01*
X56677770Y-141297256D02*
X57011104Y-142297256D01*
X57344437Y-141297256D01*
D11*
X57856342Y-180869876D02*
X58570628Y-180869876D01*
X57713485Y-181298447D02*
X58213485Y-179798447D01*
X58713485Y-181298447D01*
X59856342Y-181227018D02*
X59713485Y-181298447D01*
X59427770Y-181298447D01*
X59284913Y-181227018D01*
X59213485Y-181155590D01*
X59142056Y-181012733D01*
X59142056Y-180584161D01*
X59213485Y-180441304D01*
X59284913Y-180369876D01*
X59427770Y-180298447D01*
X59713485Y-180298447D01*
X59856342Y-180369876D01*
X60284913Y-180298447D02*
X60856342Y-180298447D01*
X60499199Y-179798447D02*
X60499199Y-181084161D01*
X60570628Y-181227018D01*
X60713485Y-181298447D01*
X60856342Y-181298447D01*
X61356342Y-181298447D02*
X61356342Y-180298447D01*
X61356342Y-179798447D02*
X61284913Y-179869876D01*
X61356342Y-179941304D01*
X61427770Y-179869876D01*
X61356342Y-179798447D01*
X61356342Y-179941304D01*
X61927770Y-180298447D02*
X62284913Y-181298447D01*
X62642056Y-180298447D01*
X63213485Y-181298447D02*
X63213485Y-180298447D01*
X63213485Y-179798447D02*
X63142056Y-179869876D01*
X63213485Y-179941304D01*
X63284913Y-179869876D01*
X63213485Y-179798447D01*
X63213485Y-179941304D01*
X63713485Y-180298447D02*
X64284913Y-180298447D01*
X63927770Y-179798447D02*
X63927770Y-181084161D01*
X63999199Y-181227018D01*
X64142056Y-181298447D01*
X64284913Y-181298447D01*
X64642056Y-180298447D02*
X64999199Y-181298447D01*
X65356342Y-180298447D02*
X64999199Y-181298447D01*
X64856342Y-181655590D01*
X64784913Y-181727018D01*
X64642056Y-181798447D01*
D12*
X59046199Y-153534876D02*
X59760485Y-153534876D01*
X58903342Y-153963447D02*
X59403342Y-152463447D01*
X59903342Y-153963447D01*
X60189056Y-152463447D02*
X61046199Y-152463447D01*
X60617628Y-153963447D02*
X60617628Y-152463447D01*
X61474770Y-153534876D02*
X62189056Y-153534876D01*
X61331913Y-153963447D02*
X61831913Y-152463447D01*
X62331913Y-153963447D01*
X63903342Y-152392018D02*
X62617628Y-154320590D01*
X64331913Y-153534876D02*
X65046199Y-153534876D01*
X64189056Y-153963447D02*
X64689056Y-152463447D01*
X65189056Y-153963447D01*
X65474770Y-152463447D02*
X66331913Y-152463447D01*
X65903342Y-153963447D02*
X65903342Y-152463447D01*
X66760485Y-153534876D02*
X67474770Y-153534876D01*
X66617628Y-153963447D02*
X67117628Y-152463447D01*
X67617628Y-153963447D01*
X68117628Y-153963447D02*
X68117628Y-152463447D01*
X68689056Y-152463447D01*
X68831913Y-152534876D01*
X68903342Y-152606304D01*
X68974770Y-152749161D01*
X68974770Y-152963447D01*
X68903342Y-153106304D01*
X68831913Y-153177733D01*
X68689056Y-153249161D01*
X68117628Y-153249161D01*
X69617628Y-153963447D02*
X69617628Y-152463447D01*
X71474770Y-153963447D02*
X71474770Y-152463447D01*
X71474770Y-153177733D02*
X72331913Y-153177733D01*
X72331913Y-153963447D02*
X72331913Y-152463447D01*
X73689056Y-153963447D02*
X73689056Y-153177733D01*
X73617628Y-153034876D01*
X73474770Y-152963447D01*
X73189056Y-152963447D01*
X73046199Y-153034876D01*
X73689056Y-153892018D02*
X73546199Y-153963447D01*
X73189056Y-153963447D01*
X73046199Y-153892018D01*
X72974770Y-153749161D01*
X72974770Y-153606304D01*
X73046199Y-153463447D01*
X73189056Y-153392018D01*
X73546199Y-153392018D01*
X73689056Y-153320590D01*
X74189056Y-152963447D02*
X74760485Y-152963447D01*
X74403342Y-152463447D02*
X74403342Y-153749161D01*
X74474770Y-153892018D01*
X74617628Y-153963447D01*
X74760485Y-153963447D01*
X76331913Y-153892018D02*
X76546199Y-153963447D01*
X76903342Y-153963447D01*
X77046199Y-153892018D01*
X77117628Y-153820590D01*
X77189056Y-153677733D01*
X77189056Y-153534876D01*
X77117628Y-153392018D01*
X77046199Y-153320590D01*
X76903342Y-153249161D01*
X76617628Y-153177733D01*
X76474770Y-153106304D01*
X76403342Y-153034876D01*
X76331913Y-152892018D01*
X76331913Y-152749161D01*
X76403342Y-152606304D01*
X76474770Y-152534876D01*
X76617628Y-152463447D01*
X76974770Y-152463447D01*
X77189056Y-152534876D01*
X77831913Y-153963447D02*
X77831913Y-152463447D01*
X78331913Y-153534876D01*
X78831913Y-152463447D01*
X78831913Y-153963447D01*
X79546199Y-153963447D02*
X79546199Y-152463447D01*
X82260485Y-153963447D02*
X81760485Y-153249161D01*
X81403342Y-153963447D02*
X81403342Y-152463447D01*
X81974770Y-152463447D01*
X82117627Y-152534876D01*
X82189056Y-152606304D01*
X82260485Y-152749161D01*
X82260485Y-152963447D01*
X82189056Y-153106304D01*
X82117627Y-153177733D01*
X81974770Y-153249161D01*
X81403342Y-153249161D01*
X83474770Y-153892018D02*
X83331913Y-153963447D01*
X83046199Y-153963447D01*
X82903342Y-153892018D01*
X82831913Y-153749161D01*
X82831913Y-153177733D01*
X82903342Y-153034876D01*
X83046199Y-152963447D01*
X83331913Y-152963447D01*
X83474770Y-153034876D01*
X83546199Y-153177733D01*
X83546199Y-153320590D01*
X82831913Y-153463447D01*
X84046199Y-152963447D02*
X84403342Y-153963447D01*
X84760485Y-152963447D01*
X85331913Y-153820590D02*
X85403342Y-153892018D01*
X85331913Y-153963447D01*
X85260485Y-153892018D01*
X85331913Y-153820590D01*
X85331913Y-153963447D01*
X87117627Y-153534876D02*
X87831913Y-153534876D01*
X86974770Y-153963447D02*
X87474770Y-152463447D01*
X87974770Y-153963447D01*
X89546199Y-152606304D02*
X89617627Y-152534876D01*
X89760485Y-152463447D01*
X90117627Y-152463447D01*
X90260485Y-152534876D01*
X90331913Y-152606304D01*
X90403342Y-152749161D01*
X90403342Y-152892018D01*
X90331913Y-153106304D01*
X89474770Y-153963447D01*
X90403342Y-153963447D01*
X91331913Y-152463447D02*
X91474770Y-152463447D01*
X91617627Y-152534876D01*
X91689056Y-152606304D01*
X91760485Y-152749161D01*
X91831913Y-153034876D01*
X91831913Y-153392018D01*
X91760485Y-153677733D01*
X91689056Y-153820590D01*
X91617627Y-153892018D01*
X91474770Y-153963447D01*
X91331913Y-153963447D01*
X91189056Y-153892018D01*
X91117627Y-153820590D01*
X91046199Y-153677733D01*
X90974770Y-153392018D01*
X90974770Y-153034876D01*
X91046199Y-152749161D01*
X91117627Y-152606304D01*
X91189056Y-152534876D01*
X91331913Y-152463447D01*
X92403342Y-152606304D02*
X92474770Y-152534876D01*
X92617628Y-152463447D01*
X92974770Y-152463447D01*
X93117628Y-152534876D01*
X93189056Y-152606304D01*
X93260485Y-152749161D01*
X93260485Y-152892018D01*
X93189056Y-153106304D01*
X92331913Y-153963447D01*
X93260485Y-153963447D01*
X94189056Y-152463447D02*
X94331913Y-152463447D01*
X94474770Y-152534876D01*
X94546199Y-152606304D01*
X94617628Y-152749161D01*
X94689056Y-153034876D01*
X94689056Y-153392018D01*
X94617628Y-153677733D01*
X94546199Y-153820590D01*
X94474770Y-153892018D01*
X94331913Y-153963447D01*
X94189056Y-153963447D01*
X94046199Y-153892018D01*
X93974770Y-153820590D01*
X93903342Y-153677733D01*
X93831913Y-153392018D01*
X93831913Y-153034876D01*
X93903342Y-152749161D01*
X93974770Y-152606304D01*
X94046199Y-152534876D01*
X94189056Y-152463447D01*
X59153342Y-155013447D02*
X60010485Y-155013447D01*
X59581913Y-156513447D02*
X59581913Y-155013447D01*
X60724770Y-156513447D02*
X60581913Y-156442018D01*
X60510485Y-156370590D01*
X60439056Y-156227733D01*
X60439056Y-155799161D01*
X60510485Y-155656304D01*
X60581913Y-155584876D01*
X60724770Y-155513447D01*
X60939056Y-155513447D01*
X61081913Y-155584876D01*
X61153342Y-155656304D01*
X61224770Y-155799161D01*
X61224770Y-156227733D01*
X61153342Y-156370590D01*
X61081913Y-156442018D01*
X60939056Y-156513447D01*
X60724770Y-156513447D01*
X61867627Y-156513447D02*
X61867627Y-155013447D01*
X61867627Y-155584876D02*
X62010485Y-155513447D01*
X62296199Y-155513447D01*
X62439056Y-155584876D01*
X62510485Y-155656304D01*
X62581913Y-155799161D01*
X62581913Y-156227733D01*
X62510485Y-156370590D01*
X62439056Y-156442018D01*
X62296199Y-156513447D01*
X62010485Y-156513447D01*
X61867627Y-156442018D01*
X63224770Y-156513447D02*
X63224770Y-155513447D01*
X63224770Y-155013447D02*
X63153342Y-155084876D01*
X63224770Y-155156304D01*
X63296199Y-155084876D01*
X63224770Y-155013447D01*
X63224770Y-155156304D01*
X64581913Y-156513447D02*
X64581913Y-155727733D01*
X64510485Y-155584876D01*
X64367627Y-155513447D01*
X64081913Y-155513447D01*
X63939056Y-155584876D01*
X64581913Y-156442018D02*
X64439056Y-156513447D01*
X64081913Y-156513447D01*
X63939056Y-156442018D01*
X63867627Y-156299161D01*
X63867627Y-156156304D01*
X63939056Y-156013447D01*
X64081913Y-155942018D01*
X64439056Y-155942018D01*
X64581913Y-155870590D01*
X65224770Y-156442018D02*
X65367627Y-156513447D01*
X65653342Y-156513447D01*
X65796199Y-156442018D01*
X65867627Y-156299161D01*
X65867627Y-156227733D01*
X65796199Y-156084876D01*
X65653342Y-156013447D01*
X65439056Y-156013447D01*
X65296199Y-155942018D01*
X65224770Y-155799161D01*
X65224770Y-155727733D01*
X65296199Y-155584876D01*
X65439056Y-155513447D01*
X65653342Y-155513447D01*
X65796199Y-155584876D01*
X67653342Y-156513447D02*
X67653342Y-155013447D01*
X68153342Y-156084876D01*
X68653342Y-155013447D01*
X68653342Y-156513447D01*
X70010485Y-156513447D02*
X70010485Y-155727733D01*
X69939056Y-155584876D01*
X69796199Y-155513447D01*
X69510485Y-155513447D01*
X69367627Y-155584876D01*
X70010485Y-156442018D02*
X69867627Y-156513447D01*
X69510485Y-156513447D01*
X69367627Y-156442018D01*
X69296199Y-156299161D01*
X69296199Y-156156304D01*
X69367627Y-156013447D01*
X69510485Y-155942018D01*
X69867627Y-155942018D01*
X70010485Y-155870590D01*
X69367627Y-155013447D02*
X69439056Y-155084876D01*
X69367627Y-155156304D01*
X69296199Y-155084876D01*
X69367627Y-155013447D01*
X69367627Y-155156304D01*
X69939056Y-155013447D02*
X70010485Y-155084876D01*
X69939056Y-155156304D01*
X69867627Y-155084876D01*
X69939056Y-155013447D01*
X69939056Y-155156304D01*
X71367627Y-156513447D02*
X71367627Y-155013447D01*
X71367627Y-156442018D02*
X71224770Y-156513447D01*
X70939056Y-156513447D01*
X70796199Y-156442018D01*
X70724770Y-156370590D01*
X70653342Y-156227733D01*
X70653342Y-155799161D01*
X70724770Y-155656304D01*
X70796199Y-155584876D01*
X70939056Y-155513447D01*
X71224770Y-155513447D01*
X71367627Y-155584876D01*
X72653342Y-156442018D02*
X72510485Y-156513447D01*
X72224770Y-156513447D01*
X72081913Y-156442018D01*
X72010485Y-156299161D01*
X72010485Y-155727733D01*
X72081913Y-155584876D01*
X72224770Y-155513447D01*
X72510485Y-155513447D01*
X72653342Y-155584876D01*
X72724770Y-155727733D01*
X72724770Y-155870590D01*
X72010485Y-156013447D01*
X73581913Y-156513447D02*
X73439056Y-156442018D01*
X73367627Y-156299161D01*
X73367627Y-155013447D01*
X76224770Y-155013447D02*
X77081913Y-155013447D01*
X76653342Y-156513447D02*
X76653342Y-155013447D01*
X77796199Y-156513447D02*
X77653342Y-156442018D01*
X77581913Y-156370590D01*
X77510485Y-156227733D01*
X77510485Y-155799161D01*
X77581913Y-155656304D01*
X77653342Y-155584876D01*
X77796199Y-155513447D01*
X78010485Y-155513447D01*
X78153342Y-155584876D01*
X78224770Y-155656304D01*
X78296199Y-155799161D01*
X78296199Y-156227733D01*
X78224770Y-156370590D01*
X78153342Y-156442018D01*
X78010485Y-156513447D01*
X77796199Y-156513447D01*
X78939056Y-156513447D02*
X78939056Y-155013447D01*
X78939056Y-155584876D02*
X79081913Y-155513447D01*
X79367627Y-155513447D01*
X79510485Y-155584876D01*
X79581913Y-155656304D01*
X79653342Y-155799161D01*
X79653342Y-156227733D01*
X79581913Y-156370590D01*
X79510485Y-156442018D01*
X79367627Y-156513447D01*
X79081913Y-156513447D01*
X78939056Y-156442018D01*
X80296199Y-156513447D02*
X80296199Y-155513447D01*
X80296199Y-155013447D02*
X80224770Y-155084876D01*
X80296199Y-155156304D01*
X80367627Y-155084876D01*
X80296199Y-155013447D01*
X80296199Y-155156304D01*
X81653342Y-156513447D02*
X81653342Y-155727733D01*
X81581913Y-155584876D01*
X81439056Y-155513447D01*
X81153342Y-155513447D01*
X81010485Y-155584876D01*
X81653342Y-156442018D02*
X81510485Y-156513447D01*
X81153342Y-156513447D01*
X81010485Y-156442018D01*
X80939056Y-156299161D01*
X80939056Y-156156304D01*
X81010485Y-156013447D01*
X81153342Y-155942018D01*
X81510485Y-155942018D01*
X81653342Y-155870590D01*
X82296199Y-156442018D02*
X82439056Y-156513447D01*
X82724770Y-156513447D01*
X82867627Y-156442018D01*
X82939056Y-156299161D01*
X82939056Y-156227733D01*
X82867627Y-156084876D01*
X82724770Y-156013447D01*
X82510485Y-156013447D01*
X82367627Y-155942018D01*
X82296199Y-155799161D01*
X82296199Y-155727733D01*
X82367627Y-155584876D01*
X82510485Y-155513447D01*
X82724770Y-155513447D01*
X82867627Y-155584876D01*
X84653342Y-156442018D02*
X84867627Y-156513447D01*
X85224770Y-156513447D01*
X85367627Y-156442018D01*
X85439056Y-156370590D01*
X85510485Y-156227733D01*
X85510485Y-156084876D01*
X85439056Y-155942018D01*
X85367627Y-155870590D01*
X85224770Y-155799161D01*
X84939056Y-155727733D01*
X84796199Y-155656304D01*
X84724770Y-155584876D01*
X84653342Y-155442018D01*
X84653342Y-155299161D01*
X84724770Y-155156304D01*
X84796199Y-155084876D01*
X84939056Y-155013447D01*
X85296199Y-155013447D01*
X85510485Y-155084876D01*
X86796199Y-156442018D02*
X86653342Y-156513447D01*
X86367627Y-156513447D01*
X86224770Y-156442018D01*
X86153342Y-156370590D01*
X86081913Y-156227733D01*
X86081913Y-155799161D01*
X86153342Y-155656304D01*
X86224770Y-155584876D01*
X86367627Y-155513447D01*
X86653342Y-155513447D01*
X86796199Y-155584876D01*
X87439056Y-156513447D02*
X87439056Y-155013447D01*
X88081913Y-156513447D02*
X88081913Y-155727733D01*
X88010485Y-155584876D01*
X87867627Y-155513447D01*
X87653342Y-155513447D01*
X87510485Y-155584876D01*
X87439056Y-155656304D01*
X88796199Y-156513447D02*
X88796199Y-155513447D01*
X88796199Y-155799161D02*
X88867627Y-155656304D01*
X88939056Y-155584876D01*
X89081913Y-155513447D01*
X89224770Y-155513447D01*
X90367627Y-156513447D02*
X90367627Y-155727733D01*
X90296199Y-155584876D01*
X90153342Y-155513447D01*
X89867627Y-155513447D01*
X89724770Y-155584876D01*
X90367627Y-156442018D02*
X90224770Y-156513447D01*
X89867627Y-156513447D01*
X89724770Y-156442018D01*
X89653342Y-156299161D01*
X89653342Y-156156304D01*
X89724770Y-156013447D01*
X89867627Y-155942018D01*
X90224770Y-155942018D01*
X90367627Y-155870590D01*
X91081913Y-156513447D02*
X91081913Y-155513447D01*
X91081913Y-155656304D02*
X91153342Y-155584876D01*
X91296199Y-155513447D01*
X91510485Y-155513447D01*
X91653342Y-155584876D01*
X91724770Y-155727733D01*
X91724770Y-156513447D01*
X91724770Y-155727733D02*
X91796199Y-155584876D01*
X91939056Y-155513447D01*
X92153342Y-155513447D01*
X92296199Y-155584876D01*
X92367627Y-155727733D01*
X92367627Y-156513447D01*
X93081913Y-156513447D02*
X93081913Y-155513447D01*
X93081913Y-155656304D02*
X93153342Y-155584876D01*
X93296199Y-155513447D01*
X93510485Y-155513447D01*
X93653342Y-155584876D01*
X93724770Y-155727733D01*
X93724770Y-156513447D01*
X93724770Y-155727733D02*
X93796199Y-155584876D01*
X93939056Y-155513447D01*
X94153342Y-155513447D01*
X94296199Y-155584876D01*
X94367628Y-155727733D01*
X94367628Y-156513447D01*
D13*
%TO.C,C2*%
X78541422Y-166790000D02*
X79058578Y-166790000D01*
X78541422Y-168210000D02*
X79058578Y-168210000D01*
%TO.C,J2*%
X107350628Y-169049876D02*
X107350628Y-178169876D01*
X107350628Y-178169876D02*
X48670628Y-178169876D01*
X48670628Y-178169876D02*
X48670628Y-169049876D01*
X48670628Y-169049876D02*
X107350628Y-169049876D01*
X80060628Y-169049876D02*
X80060628Y-170359876D01*
X80060628Y-170359876D02*
X106050628Y-170359876D01*
X106050628Y-170359876D02*
X106050628Y-176859876D01*
X106050628Y-176859876D02*
X49970628Y-176859876D01*
X49970628Y-176859876D02*
X49970628Y-170359876D01*
X49970628Y-170359876D02*
X75960628Y-170359876D01*
X75960628Y-170359876D02*
X75960628Y-170359876D01*
X75960628Y-170359876D02*
X75960628Y-169049876D01*
X102140628Y-168659876D02*
X102640628Y-167659876D01*
X102640628Y-167659876D02*
X101640628Y-167659876D01*
X101640628Y-167659876D02*
X102140628Y-168659876D01*
%TO.C,J3*%
X53275628Y-140659876D02*
X52975628Y-140359876D01*
X53575628Y-140359876D02*
X52975628Y-140359876D01*
X53275628Y-140659876D02*
X53575628Y-140359876D01*
X54025628Y-140859876D02*
X54025628Y-142859876D01*
X49925628Y-140859876D02*
X54025628Y-140859876D01*
X49925628Y-142859876D02*
X49925628Y-140859876D01*
X54025628Y-142859876D02*
X49925628Y-142859876D01*
%TO.C,D1*%
X56435628Y-179859876D02*
X54150628Y-179859876D01*
X54150628Y-179859876D02*
X54150628Y-181329876D01*
X54150628Y-181329876D02*
X56435628Y-181329876D01*
%TD*%
M02*
