%TF.GenerationSoftware,KiCad,Pcbnew,5.1.6*%
%TF.CreationDate,2020-08-12T10:28:14+02:00*%
%TF.ProjectId,ATAPIHat-SMI,41544150-4948-4617-942d-534d492e6b69,rev?*%
%TF.SameCoordinates,Original*%
%TF.FileFunction,Soldermask,Bot*%
%TF.FilePolarity,Negative*%
%FSLAX46Y46*%
G04 Gerber Fmt 4.6, Leading zero omitted, Abs format (unit mm)*
G04 Created by KiCad (PCBNEW 5.1.6) date 2020-08-12 10:28:14*
%MOMM*%
%LPD*%
G01*
G04 APERTURE LIST*
%ADD10C,6.200000*%
%ADD11C,1.800000*%
%ADD12R,1.800000X1.800000*%
%ADD13O,1.800000X1.800000*%
G04 APERTURE END LIST*
D10*
%TO.C,*%
X48392628Y-131655876D03*
%TD*%
%TO.C,*%
X106392628Y-180655875D03*
%TD*%
%TO.C,*%
X48392627Y-180655877D03*
%TD*%
%TO.C,*%
X106392628Y-131655876D03*
%TD*%
D11*
%TO.C,J2*%
X53880628Y-174879876D03*
X56420628Y-174879876D03*
X58960628Y-174879876D03*
X61500628Y-174879876D03*
X64040628Y-174879876D03*
X66580628Y-174879876D03*
X69120628Y-174879876D03*
X71660628Y-174879876D03*
X74200628Y-174879876D03*
X76740628Y-174879876D03*
X79280628Y-174879876D03*
X81820628Y-174879876D03*
X84360628Y-174879876D03*
X86900628Y-174879876D03*
X89440628Y-174879876D03*
X91980628Y-174879876D03*
X94520628Y-174879876D03*
X97060628Y-174879876D03*
X99600628Y-174879876D03*
X102140628Y-174879876D03*
X53880628Y-172339876D03*
X56420628Y-172339876D03*
X58960628Y-172339876D03*
X61500628Y-172339876D03*
X64040628Y-172339876D03*
X66580628Y-172339876D03*
X69120628Y-172339876D03*
X71660628Y-172339876D03*
X74200628Y-172339876D03*
X76740628Y-172339876D03*
X79280628Y-172339876D03*
X81820628Y-172339876D03*
X84360628Y-172339876D03*
X86900628Y-172339876D03*
X89440628Y-172339876D03*
X91980628Y-172339876D03*
X94520628Y-172339876D03*
X97060628Y-172339876D03*
X99600628Y-172339876D03*
G36*
G01*
X101505334Y-171439876D02*
X102775922Y-171439876D01*
G75*
G02*
X103040628Y-171704582I0J-264706D01*
G01*
X103040628Y-172975170D01*
G75*
G02*
X102775922Y-173239876I-264706J0D01*
G01*
X101505334Y-173239876D01*
G75*
G02*
X101240628Y-172975170I0J264706D01*
G01*
X101240628Y-171704582D01*
G75*
G02*
X101505334Y-171439876I264706J0D01*
G01*
G37*
%TD*%
D12*
%TO.C,J1*%
X53245628Y-132969876D03*
D13*
X53245628Y-130429876D03*
X55785628Y-132969876D03*
X55785628Y-130429876D03*
X58325628Y-132969876D03*
X58325628Y-130429876D03*
X60865628Y-132969876D03*
X60865628Y-130429876D03*
X63405628Y-132969876D03*
X63405628Y-130429876D03*
X65945628Y-132969876D03*
X65945628Y-130429876D03*
X68485628Y-132969876D03*
X68485628Y-130429876D03*
X71025628Y-132969876D03*
X71025628Y-130429876D03*
X73565628Y-132969876D03*
X73565628Y-130429876D03*
X76105628Y-132969876D03*
X76105628Y-130429876D03*
X78645628Y-132969876D03*
X78645628Y-130429876D03*
X81185628Y-132969876D03*
X81185628Y-130429876D03*
X83725628Y-132969876D03*
X83725628Y-130429876D03*
X86265628Y-132969876D03*
X86265628Y-130429876D03*
X88805628Y-132969876D03*
X88805628Y-130429876D03*
X91345628Y-132969876D03*
X91345628Y-130429876D03*
X93885628Y-132969876D03*
X93885628Y-130429876D03*
X96425628Y-132969876D03*
X96425628Y-130429876D03*
X98965628Y-132969876D03*
X98965628Y-130429876D03*
X101505628Y-132969876D03*
X101505628Y-130429876D03*
%TD*%
M02*
