%TF.GenerationSoftware,KiCad,Pcbnew,5.1.6*%
%TF.CreationDate,2020-08-12T10:28:14+02:00*%
%TF.ProjectId,ATAPIHat-SMI,41544150-4948-4617-942d-534d492e6b69,rev?*%
%TF.SameCoordinates,Original*%
%TF.FileFunction,Paste,Top*%
%TF.FilePolarity,Positive*%
%FSLAX46Y46*%
G04 Gerber Fmt 4.6, Leading zero omitted, Abs format (unit mm)*
G04 Created by KiCad (PCBNEW 5.1.6) date 2020-08-12 10:28:14*
%MOMM*%
%LPD*%
G01*
G04 APERTURE LIST*
G04 APERTURE END LIST*
%TO.C,C2*%
G36*
G01*
X79250000Y-167956250D02*
X79250000Y-167043750D01*
G75*
G02*
X79493750Y-166800000I243750J0D01*
G01*
X79981250Y-166800000D01*
G75*
G02*
X80225000Y-167043750I0J-243750D01*
G01*
X80225000Y-167956250D01*
G75*
G02*
X79981250Y-168200000I-243750J0D01*
G01*
X79493750Y-168200000D01*
G75*
G02*
X79250000Y-167956250I0J243750D01*
G01*
G37*
G36*
G01*
X77375000Y-167956250D02*
X77375000Y-167043750D01*
G75*
G02*
X77618750Y-166800000I243750J0D01*
G01*
X78106250Y-166800000D01*
G75*
G02*
X78350000Y-167043750I0J-243750D01*
G01*
X78350000Y-167956250D01*
G75*
G02*
X78106250Y-168200000I-243750J0D01*
G01*
X77618750Y-168200000D01*
G75*
G02*
X77375000Y-167956250I0J243750D01*
G01*
G37*
%TD*%
%TO.C,C1*%
G36*
G01*
X77198128Y-142334876D02*
X77543128Y-142334876D01*
G75*
G02*
X77690628Y-142482376I0J-147500D01*
G01*
X77690628Y-142777376D01*
G75*
G02*
X77543128Y-142924876I-147500J0D01*
G01*
X77198128Y-142924876D01*
G75*
G02*
X77050628Y-142777376I0J147500D01*
G01*
X77050628Y-142482376D01*
G75*
G02*
X77198128Y-142334876I147500J0D01*
G01*
G37*
G36*
G01*
X77198128Y-141364876D02*
X77543128Y-141364876D01*
G75*
G02*
X77690628Y-141512376I0J-147500D01*
G01*
X77690628Y-141807376D01*
G75*
G02*
X77543128Y-141954876I-147500J0D01*
G01*
X77198128Y-141954876D01*
G75*
G02*
X77050628Y-141807376I0J147500D01*
G01*
X77050628Y-141512376D01*
G75*
G02*
X77198128Y-141364876I147500J0D01*
G01*
G37*
%TD*%
%TO.C,R33*%
G36*
G01*
X94072500Y-136010000D02*
X93727500Y-136010000D01*
G75*
G02*
X93580000Y-135862500I0J147500D01*
G01*
X93580000Y-135567500D01*
G75*
G02*
X93727500Y-135420000I147500J0D01*
G01*
X94072500Y-135420000D01*
G75*
G02*
X94220000Y-135567500I0J-147500D01*
G01*
X94220000Y-135862500D01*
G75*
G02*
X94072500Y-136010000I-147500J0D01*
G01*
G37*
G36*
G01*
X94072500Y-136980000D02*
X93727500Y-136980000D01*
G75*
G02*
X93580000Y-136832500I0J147500D01*
G01*
X93580000Y-136537500D01*
G75*
G02*
X93727500Y-136390000I147500J0D01*
G01*
X94072500Y-136390000D01*
G75*
G02*
X94220000Y-136537500I0J-147500D01*
G01*
X94220000Y-136832500D01*
G75*
G02*
X94072500Y-136980000I-147500J0D01*
G01*
G37*
%TD*%
%TO.C,R32*%
G36*
G01*
X81372500Y-136010000D02*
X81027500Y-136010000D01*
G75*
G02*
X80880000Y-135862500I0J147500D01*
G01*
X80880000Y-135567500D01*
G75*
G02*
X81027500Y-135420000I147500J0D01*
G01*
X81372500Y-135420000D01*
G75*
G02*
X81520000Y-135567500I0J-147500D01*
G01*
X81520000Y-135862500D01*
G75*
G02*
X81372500Y-136010000I-147500J0D01*
G01*
G37*
G36*
G01*
X81372500Y-136980000D02*
X81027500Y-136980000D01*
G75*
G02*
X80880000Y-136832500I0J147500D01*
G01*
X80880000Y-136537500D01*
G75*
G02*
X81027500Y-136390000I147500J0D01*
G01*
X81372500Y-136390000D01*
G75*
G02*
X81520000Y-136537500I0J-147500D01*
G01*
X81520000Y-136832500D01*
G75*
G02*
X81372500Y-136980000I-147500J0D01*
G01*
G37*
%TD*%
%TO.C,R31*%
G36*
G01*
X78872500Y-136010000D02*
X78527500Y-136010000D01*
G75*
G02*
X78380000Y-135862500I0J147500D01*
G01*
X78380000Y-135567500D01*
G75*
G02*
X78527500Y-135420000I147500J0D01*
G01*
X78872500Y-135420000D01*
G75*
G02*
X79020000Y-135567500I0J-147500D01*
G01*
X79020000Y-135862500D01*
G75*
G02*
X78872500Y-136010000I-147500J0D01*
G01*
G37*
G36*
G01*
X78872500Y-136980000D02*
X78527500Y-136980000D01*
G75*
G02*
X78380000Y-136832500I0J147500D01*
G01*
X78380000Y-136537500D01*
G75*
G02*
X78527500Y-136390000I147500J0D01*
G01*
X78872500Y-136390000D01*
G75*
G02*
X79020000Y-136537500I0J-147500D01*
G01*
X79020000Y-136832500D01*
G75*
G02*
X78872500Y-136980000I-147500J0D01*
G01*
G37*
%TD*%
%TO.C,R30*%
G36*
G01*
X85172500Y-138810000D02*
X84827500Y-138810000D01*
G75*
G02*
X84680000Y-138662500I0J147500D01*
G01*
X84680000Y-138367500D01*
G75*
G02*
X84827500Y-138220000I147500J0D01*
G01*
X85172500Y-138220000D01*
G75*
G02*
X85320000Y-138367500I0J-147500D01*
G01*
X85320000Y-138662500D01*
G75*
G02*
X85172500Y-138810000I-147500J0D01*
G01*
G37*
G36*
G01*
X85172500Y-139780000D02*
X84827500Y-139780000D01*
G75*
G02*
X84680000Y-139632500I0J147500D01*
G01*
X84680000Y-139337500D01*
G75*
G02*
X84827500Y-139190000I147500J0D01*
G01*
X85172500Y-139190000D01*
G75*
G02*
X85320000Y-139337500I0J-147500D01*
G01*
X85320000Y-139632500D01*
G75*
G02*
X85172500Y-139780000I-147500J0D01*
G01*
G37*
%TD*%
%TO.C,R29*%
G36*
G01*
X88972500Y-136010000D02*
X88627500Y-136010000D01*
G75*
G02*
X88480000Y-135862500I0J147500D01*
G01*
X88480000Y-135567500D01*
G75*
G02*
X88627500Y-135420000I147500J0D01*
G01*
X88972500Y-135420000D01*
G75*
G02*
X89120000Y-135567500I0J-147500D01*
G01*
X89120000Y-135862500D01*
G75*
G02*
X88972500Y-136010000I-147500J0D01*
G01*
G37*
G36*
G01*
X88972500Y-136980000D02*
X88627500Y-136980000D01*
G75*
G02*
X88480000Y-136832500I0J147500D01*
G01*
X88480000Y-136537500D01*
G75*
G02*
X88627500Y-136390000I147500J0D01*
G01*
X88972500Y-136390000D01*
G75*
G02*
X89120000Y-136537500I0J-147500D01*
G01*
X89120000Y-136832500D01*
G75*
G02*
X88972500Y-136980000I-147500J0D01*
G01*
G37*
%TD*%
%TO.C,R28*%
G36*
G01*
X58522500Y-136010000D02*
X58177500Y-136010000D01*
G75*
G02*
X58030000Y-135862500I0J147500D01*
G01*
X58030000Y-135567500D01*
G75*
G02*
X58177500Y-135420000I147500J0D01*
G01*
X58522500Y-135420000D01*
G75*
G02*
X58670000Y-135567500I0J-147500D01*
G01*
X58670000Y-135862500D01*
G75*
G02*
X58522500Y-136010000I-147500J0D01*
G01*
G37*
G36*
G01*
X58522500Y-136980000D02*
X58177500Y-136980000D01*
G75*
G02*
X58030000Y-136832500I0J147500D01*
G01*
X58030000Y-136537500D01*
G75*
G02*
X58177500Y-136390000I147500J0D01*
G01*
X58522500Y-136390000D01*
G75*
G02*
X58670000Y-136537500I0J-147500D01*
G01*
X58670000Y-136832500D01*
G75*
G02*
X58522500Y-136980000I-147500J0D01*
G01*
G37*
%TD*%
%TO.C,R27*%
G36*
G01*
X87327500Y-139190000D02*
X87672500Y-139190000D01*
G75*
G02*
X87820000Y-139337500I0J-147500D01*
G01*
X87820000Y-139632500D01*
G75*
G02*
X87672500Y-139780000I-147500J0D01*
G01*
X87327500Y-139780000D01*
G75*
G02*
X87180000Y-139632500I0J147500D01*
G01*
X87180000Y-139337500D01*
G75*
G02*
X87327500Y-139190000I147500J0D01*
G01*
G37*
G36*
G01*
X87327500Y-138220000D02*
X87672500Y-138220000D01*
G75*
G02*
X87820000Y-138367500I0J-147500D01*
G01*
X87820000Y-138662500D01*
G75*
G02*
X87672500Y-138810000I-147500J0D01*
G01*
X87327500Y-138810000D01*
G75*
G02*
X87180000Y-138662500I0J147500D01*
G01*
X87180000Y-138367500D01*
G75*
G02*
X87327500Y-138220000I147500J0D01*
G01*
G37*
%TD*%
%TO.C,R26*%
G36*
G01*
X92772500Y-138810000D02*
X92427500Y-138810000D01*
G75*
G02*
X92280000Y-138662500I0J147500D01*
G01*
X92280000Y-138367500D01*
G75*
G02*
X92427500Y-138220000I147500J0D01*
G01*
X92772500Y-138220000D01*
G75*
G02*
X92920000Y-138367500I0J-147500D01*
G01*
X92920000Y-138662500D01*
G75*
G02*
X92772500Y-138810000I-147500J0D01*
G01*
G37*
G36*
G01*
X92772500Y-139780000D02*
X92427500Y-139780000D01*
G75*
G02*
X92280000Y-139632500I0J147500D01*
G01*
X92280000Y-139337500D01*
G75*
G02*
X92427500Y-139190000I147500J0D01*
G01*
X92772500Y-139190000D01*
G75*
G02*
X92920000Y-139337500I0J-147500D01*
G01*
X92920000Y-139632500D01*
G75*
G02*
X92772500Y-139780000I-147500J0D01*
G01*
G37*
%TD*%
%TO.C,R25*%
G36*
G01*
X76272500Y-136010000D02*
X75927500Y-136010000D01*
G75*
G02*
X75780000Y-135862500I0J147500D01*
G01*
X75780000Y-135567500D01*
G75*
G02*
X75927500Y-135420000I147500J0D01*
G01*
X76272500Y-135420000D01*
G75*
G02*
X76420000Y-135567500I0J-147500D01*
G01*
X76420000Y-135862500D01*
G75*
G02*
X76272500Y-136010000I-147500J0D01*
G01*
G37*
G36*
G01*
X76272500Y-136980000D02*
X75927500Y-136980000D01*
G75*
G02*
X75780000Y-136832500I0J147500D01*
G01*
X75780000Y-136537500D01*
G75*
G02*
X75927500Y-136390000I147500J0D01*
G01*
X76272500Y-136390000D01*
G75*
G02*
X76420000Y-136537500I0J-147500D01*
G01*
X76420000Y-136832500D01*
G75*
G02*
X76272500Y-136980000I-147500J0D01*
G01*
G37*
%TD*%
%TO.C,R24*%
G36*
G01*
X82622500Y-138810000D02*
X82277500Y-138810000D01*
G75*
G02*
X82130000Y-138662500I0J147500D01*
G01*
X82130000Y-138367500D01*
G75*
G02*
X82277500Y-138220000I147500J0D01*
G01*
X82622500Y-138220000D01*
G75*
G02*
X82770000Y-138367500I0J-147500D01*
G01*
X82770000Y-138662500D01*
G75*
G02*
X82622500Y-138810000I-147500J0D01*
G01*
G37*
G36*
G01*
X82622500Y-139780000D02*
X82277500Y-139780000D01*
G75*
G02*
X82130000Y-139632500I0J147500D01*
G01*
X82130000Y-139337500D01*
G75*
G02*
X82277500Y-139190000I147500J0D01*
G01*
X82622500Y-139190000D01*
G75*
G02*
X82770000Y-139337500I0J-147500D01*
G01*
X82770000Y-139632500D01*
G75*
G02*
X82622500Y-139780000I-147500J0D01*
G01*
G37*
%TD*%
%TO.C,R23*%
G36*
G01*
X91572500Y-136010000D02*
X91227500Y-136010000D01*
G75*
G02*
X91080000Y-135862500I0J147500D01*
G01*
X91080000Y-135567500D01*
G75*
G02*
X91227500Y-135420000I147500J0D01*
G01*
X91572500Y-135420000D01*
G75*
G02*
X91720000Y-135567500I0J-147500D01*
G01*
X91720000Y-135862500D01*
G75*
G02*
X91572500Y-136010000I-147500J0D01*
G01*
G37*
G36*
G01*
X91572500Y-136980000D02*
X91227500Y-136980000D01*
G75*
G02*
X91080000Y-136832500I0J147500D01*
G01*
X91080000Y-136537500D01*
G75*
G02*
X91227500Y-136390000I147500J0D01*
G01*
X91572500Y-136390000D01*
G75*
G02*
X91720000Y-136537500I0J-147500D01*
G01*
X91720000Y-136832500D01*
G75*
G02*
X91572500Y-136980000I-147500J0D01*
G01*
G37*
%TD*%
%TO.C,R22*%
G36*
G01*
X61072500Y-136010000D02*
X60727500Y-136010000D01*
G75*
G02*
X60580000Y-135862500I0J147500D01*
G01*
X60580000Y-135567500D01*
G75*
G02*
X60727500Y-135420000I147500J0D01*
G01*
X61072500Y-135420000D01*
G75*
G02*
X61220000Y-135567500I0J-147500D01*
G01*
X61220000Y-135862500D01*
G75*
G02*
X61072500Y-136010000I-147500J0D01*
G01*
G37*
G36*
G01*
X61072500Y-136980000D02*
X60727500Y-136980000D01*
G75*
G02*
X60580000Y-136832500I0J147500D01*
G01*
X60580000Y-136537500D01*
G75*
G02*
X60727500Y-136390000I147500J0D01*
G01*
X61072500Y-136390000D01*
G75*
G02*
X61220000Y-136537500I0J-147500D01*
G01*
X61220000Y-136832500D01*
G75*
G02*
X61072500Y-136980000I-147500J0D01*
G01*
G37*
%TD*%
%TO.C,R21*%
G36*
G01*
X55972500Y-136010000D02*
X55627500Y-136010000D01*
G75*
G02*
X55480000Y-135862500I0J147500D01*
G01*
X55480000Y-135567500D01*
G75*
G02*
X55627500Y-135420000I147500J0D01*
G01*
X55972500Y-135420000D01*
G75*
G02*
X56120000Y-135567500I0J-147500D01*
G01*
X56120000Y-135862500D01*
G75*
G02*
X55972500Y-136010000I-147500J0D01*
G01*
G37*
G36*
G01*
X55972500Y-136980000D02*
X55627500Y-136980000D01*
G75*
G02*
X55480000Y-136832500I0J147500D01*
G01*
X55480000Y-136537500D01*
G75*
G02*
X55627500Y-136390000I147500J0D01*
G01*
X55972500Y-136390000D01*
G75*
G02*
X56120000Y-136537500I0J-147500D01*
G01*
X56120000Y-136832500D01*
G75*
G02*
X55972500Y-136980000I-147500J0D01*
G01*
G37*
%TD*%
%TO.C,R20*%
G36*
G01*
X86472500Y-136010000D02*
X86127500Y-136010000D01*
G75*
G02*
X85980000Y-135862500I0J147500D01*
G01*
X85980000Y-135567500D01*
G75*
G02*
X86127500Y-135420000I147500J0D01*
G01*
X86472500Y-135420000D01*
G75*
G02*
X86620000Y-135567500I0J-147500D01*
G01*
X86620000Y-135862500D01*
G75*
G02*
X86472500Y-136010000I-147500J0D01*
G01*
G37*
G36*
G01*
X86472500Y-136980000D02*
X86127500Y-136980000D01*
G75*
G02*
X85980000Y-136832500I0J147500D01*
G01*
X85980000Y-136537500D01*
G75*
G02*
X86127500Y-136390000I147500J0D01*
G01*
X86472500Y-136390000D01*
G75*
G02*
X86620000Y-136537500I0J-147500D01*
G01*
X86620000Y-136832500D01*
G75*
G02*
X86472500Y-136980000I-147500J0D01*
G01*
G37*
%TD*%
%TO.C,R19*%
G36*
G01*
X83552500Y-136390000D02*
X83897500Y-136390000D01*
G75*
G02*
X84045000Y-136537500I0J-147500D01*
G01*
X84045000Y-136832500D01*
G75*
G02*
X83897500Y-136980000I-147500J0D01*
G01*
X83552500Y-136980000D01*
G75*
G02*
X83405000Y-136832500I0J147500D01*
G01*
X83405000Y-136537500D01*
G75*
G02*
X83552500Y-136390000I147500J0D01*
G01*
G37*
G36*
G01*
X83552500Y-135420000D02*
X83897500Y-135420000D01*
G75*
G02*
X84045000Y-135567500I0J-147500D01*
G01*
X84045000Y-135862500D01*
G75*
G02*
X83897500Y-136010000I-147500J0D01*
G01*
X83552500Y-136010000D01*
G75*
G02*
X83405000Y-135862500I0J147500D01*
G01*
X83405000Y-135567500D01*
G75*
G02*
X83552500Y-135420000I147500J0D01*
G01*
G37*
%TD*%
%TO.C,R18*%
G36*
G01*
X69552500Y-136384876D02*
X69897500Y-136384876D01*
G75*
G02*
X70045000Y-136532376I0J-147500D01*
G01*
X70045000Y-136827376D01*
G75*
G02*
X69897500Y-136974876I-147500J0D01*
G01*
X69552500Y-136974876D01*
G75*
G02*
X69405000Y-136827376I0J147500D01*
G01*
X69405000Y-136532376D01*
G75*
G02*
X69552500Y-136384876I147500J0D01*
G01*
G37*
G36*
G01*
X69552500Y-135414876D02*
X69897500Y-135414876D01*
G75*
G02*
X70045000Y-135562376I0J-147500D01*
G01*
X70045000Y-135857376D01*
G75*
G02*
X69897500Y-136004876I-147500J0D01*
G01*
X69552500Y-136004876D01*
G75*
G02*
X69405000Y-135857376I0J147500D01*
G01*
X69405000Y-135562376D01*
G75*
G02*
X69552500Y-135414876I147500J0D01*
G01*
G37*
%TD*%
%TO.C,R17*%
G36*
G01*
X77522500Y-138810000D02*
X77177500Y-138810000D01*
G75*
G02*
X77030000Y-138662500I0J147500D01*
G01*
X77030000Y-138367500D01*
G75*
G02*
X77177500Y-138220000I147500J0D01*
G01*
X77522500Y-138220000D01*
G75*
G02*
X77670000Y-138367500I0J-147500D01*
G01*
X77670000Y-138662500D01*
G75*
G02*
X77522500Y-138810000I-147500J0D01*
G01*
G37*
G36*
G01*
X77522500Y-139780000D02*
X77177500Y-139780000D01*
G75*
G02*
X77030000Y-139632500I0J147500D01*
G01*
X77030000Y-139337500D01*
G75*
G02*
X77177500Y-139190000I147500J0D01*
G01*
X77522500Y-139190000D01*
G75*
G02*
X77670000Y-139337500I0J-147500D01*
G01*
X77670000Y-139632500D01*
G75*
G02*
X77522500Y-139780000I-147500J0D01*
G01*
G37*
%TD*%
%TO.C,R16*%
G36*
G01*
X63227500Y-139190000D02*
X63572500Y-139190000D01*
G75*
G02*
X63720000Y-139337500I0J-147500D01*
G01*
X63720000Y-139632500D01*
G75*
G02*
X63572500Y-139780000I-147500J0D01*
G01*
X63227500Y-139780000D01*
G75*
G02*
X63080000Y-139632500I0J147500D01*
G01*
X63080000Y-139337500D01*
G75*
G02*
X63227500Y-139190000I147500J0D01*
G01*
G37*
G36*
G01*
X63227500Y-138220000D02*
X63572500Y-138220000D01*
G75*
G02*
X63720000Y-138367500I0J-147500D01*
G01*
X63720000Y-138662500D01*
G75*
G02*
X63572500Y-138810000I-147500J0D01*
G01*
X63227500Y-138810000D01*
G75*
G02*
X63080000Y-138662500I0J147500D01*
G01*
X63080000Y-138367500D01*
G75*
G02*
X63227500Y-138220000I147500J0D01*
G01*
G37*
%TD*%
%TO.C,R15*%
G36*
G01*
X99172500Y-136010000D02*
X98827500Y-136010000D01*
G75*
G02*
X98680000Y-135862500I0J147500D01*
G01*
X98680000Y-135567500D01*
G75*
G02*
X98827500Y-135420000I147500J0D01*
G01*
X99172500Y-135420000D01*
G75*
G02*
X99320000Y-135567500I0J-147500D01*
G01*
X99320000Y-135862500D01*
G75*
G02*
X99172500Y-136010000I-147500J0D01*
G01*
G37*
G36*
G01*
X99172500Y-136980000D02*
X98827500Y-136980000D01*
G75*
G02*
X98680000Y-136832500I0J147500D01*
G01*
X98680000Y-136537500D01*
G75*
G02*
X98827500Y-136390000I147500J0D01*
G01*
X99172500Y-136390000D01*
G75*
G02*
X99320000Y-136537500I0J-147500D01*
G01*
X99320000Y-136832500D01*
G75*
G02*
X99172500Y-136980000I-147500J0D01*
G01*
G37*
%TD*%
%TO.C,R14*%
G36*
G01*
X74627500Y-139190000D02*
X74972500Y-139190000D01*
G75*
G02*
X75120000Y-139337500I0J-147500D01*
G01*
X75120000Y-139632500D01*
G75*
G02*
X74972500Y-139780000I-147500J0D01*
G01*
X74627500Y-139780000D01*
G75*
G02*
X74480000Y-139632500I0J147500D01*
G01*
X74480000Y-139337500D01*
G75*
G02*
X74627500Y-139190000I147500J0D01*
G01*
G37*
G36*
G01*
X74627500Y-138220000D02*
X74972500Y-138220000D01*
G75*
G02*
X75120000Y-138367500I0J-147500D01*
G01*
X75120000Y-138662500D01*
G75*
G02*
X74972500Y-138810000I-147500J0D01*
G01*
X74627500Y-138810000D01*
G75*
G02*
X74480000Y-138662500I0J147500D01*
G01*
X74480000Y-138367500D01*
G75*
G02*
X74627500Y-138220000I147500J0D01*
G01*
G37*
%TD*%
%TO.C,R13*%
G36*
G01*
X71172500Y-136010000D02*
X70827500Y-136010000D01*
G75*
G02*
X70680000Y-135862500I0J147500D01*
G01*
X70680000Y-135567500D01*
G75*
G02*
X70827500Y-135420000I147500J0D01*
G01*
X71172500Y-135420000D01*
G75*
G02*
X71320000Y-135567500I0J-147500D01*
G01*
X71320000Y-135862500D01*
G75*
G02*
X71172500Y-136010000I-147500J0D01*
G01*
G37*
G36*
G01*
X71172500Y-136980000D02*
X70827500Y-136980000D01*
G75*
G02*
X70680000Y-136832500I0J147500D01*
G01*
X70680000Y-136537500D01*
G75*
G02*
X70827500Y-136390000I147500J0D01*
G01*
X71172500Y-136390000D01*
G75*
G02*
X71320000Y-136537500I0J-147500D01*
G01*
X71320000Y-136832500D01*
G75*
G02*
X71172500Y-136980000I-147500J0D01*
G01*
G37*
%TD*%
%TO.C,R12*%
G36*
G01*
X100372500Y-138810000D02*
X100027500Y-138810000D01*
G75*
G02*
X99880000Y-138662500I0J147500D01*
G01*
X99880000Y-138367500D01*
G75*
G02*
X100027500Y-138220000I147500J0D01*
G01*
X100372500Y-138220000D01*
G75*
G02*
X100520000Y-138367500I0J-147500D01*
G01*
X100520000Y-138662500D01*
G75*
G02*
X100372500Y-138810000I-147500J0D01*
G01*
G37*
G36*
G01*
X100372500Y-139780000D02*
X100027500Y-139780000D01*
G75*
G02*
X99880000Y-139632500I0J147500D01*
G01*
X99880000Y-139337500D01*
G75*
G02*
X100027500Y-139190000I147500J0D01*
G01*
X100372500Y-139190000D01*
G75*
G02*
X100520000Y-139337500I0J-147500D01*
G01*
X100520000Y-139632500D01*
G75*
G02*
X100372500Y-139780000I-147500J0D01*
G01*
G37*
%TD*%
%TO.C,R11*%
G36*
G01*
X67372500Y-138810000D02*
X67027500Y-138810000D01*
G75*
G02*
X66880000Y-138662500I0J147500D01*
G01*
X66880000Y-138367500D01*
G75*
G02*
X67027500Y-138220000I147500J0D01*
G01*
X67372500Y-138220000D01*
G75*
G02*
X67520000Y-138367500I0J-147500D01*
G01*
X67520000Y-138662500D01*
G75*
G02*
X67372500Y-138810000I-147500J0D01*
G01*
G37*
G36*
G01*
X67372500Y-139780000D02*
X67027500Y-139780000D01*
G75*
G02*
X66880000Y-139632500I0J147500D01*
G01*
X66880000Y-139337500D01*
G75*
G02*
X67027500Y-139190000I147500J0D01*
G01*
X67372500Y-139190000D01*
G75*
G02*
X67520000Y-139337500I0J-147500D01*
G01*
X67520000Y-139632500D01*
G75*
G02*
X67372500Y-139780000I-147500J0D01*
G01*
G37*
%TD*%
%TO.C,R10*%
G36*
G01*
X97872500Y-138810000D02*
X97527500Y-138810000D01*
G75*
G02*
X97380000Y-138662500I0J147500D01*
G01*
X97380000Y-138367500D01*
G75*
G02*
X97527500Y-138220000I147500J0D01*
G01*
X97872500Y-138220000D01*
G75*
G02*
X98020000Y-138367500I0J-147500D01*
G01*
X98020000Y-138662500D01*
G75*
G02*
X97872500Y-138810000I-147500J0D01*
G01*
G37*
G36*
G01*
X97872500Y-139780000D02*
X97527500Y-139780000D01*
G75*
G02*
X97380000Y-139632500I0J147500D01*
G01*
X97380000Y-139337500D01*
G75*
G02*
X97527500Y-139190000I147500J0D01*
G01*
X97872500Y-139190000D01*
G75*
G02*
X98020000Y-139337500I0J-147500D01*
G01*
X98020000Y-139632500D01*
G75*
G02*
X97872500Y-139780000I-147500J0D01*
G01*
G37*
%TD*%
%TO.C,R9*%
G36*
G01*
X62272500Y-138810000D02*
X61927500Y-138810000D01*
G75*
G02*
X61780000Y-138662500I0J147500D01*
G01*
X61780000Y-138367500D01*
G75*
G02*
X61927500Y-138220000I147500J0D01*
G01*
X62272500Y-138220000D01*
G75*
G02*
X62420000Y-138367500I0J-147500D01*
G01*
X62420000Y-138662500D01*
G75*
G02*
X62272500Y-138810000I-147500J0D01*
G01*
G37*
G36*
G01*
X62272500Y-139780000D02*
X61927500Y-139780000D01*
G75*
G02*
X61780000Y-139632500I0J147500D01*
G01*
X61780000Y-139337500D01*
G75*
G02*
X61927500Y-139190000I147500J0D01*
G01*
X62272500Y-139190000D01*
G75*
G02*
X62420000Y-139337500I0J-147500D01*
G01*
X62420000Y-139632500D01*
G75*
G02*
X62272500Y-139780000I-147500J0D01*
G01*
G37*
%TD*%
%TO.C,R8*%
G36*
G01*
X68327500Y-136390000D02*
X68672500Y-136390000D01*
G75*
G02*
X68820000Y-136537500I0J-147500D01*
G01*
X68820000Y-136832500D01*
G75*
G02*
X68672500Y-136980000I-147500J0D01*
G01*
X68327500Y-136980000D01*
G75*
G02*
X68180000Y-136832500I0J147500D01*
G01*
X68180000Y-136537500D01*
G75*
G02*
X68327500Y-136390000I147500J0D01*
G01*
G37*
G36*
G01*
X68327500Y-135420000D02*
X68672500Y-135420000D01*
G75*
G02*
X68820000Y-135567500I0J-147500D01*
G01*
X68820000Y-135862500D01*
G75*
G02*
X68672500Y-136010000I-147500J0D01*
G01*
X68327500Y-136010000D01*
G75*
G02*
X68180000Y-135862500I0J147500D01*
G01*
X68180000Y-135567500D01*
G75*
G02*
X68327500Y-135420000I147500J0D01*
G01*
G37*
%TD*%
%TO.C,R7*%
G36*
G01*
X79727500Y-139190000D02*
X80072500Y-139190000D01*
G75*
G02*
X80220000Y-139337500I0J-147500D01*
G01*
X80220000Y-139632500D01*
G75*
G02*
X80072500Y-139780000I-147500J0D01*
G01*
X79727500Y-139780000D01*
G75*
G02*
X79580000Y-139632500I0J147500D01*
G01*
X79580000Y-139337500D01*
G75*
G02*
X79727500Y-139190000I147500J0D01*
G01*
G37*
G36*
G01*
X79727500Y-138220000D02*
X80072500Y-138220000D01*
G75*
G02*
X80220000Y-138367500I0J-147500D01*
G01*
X80220000Y-138662500D01*
G75*
G02*
X80072500Y-138810000I-147500J0D01*
G01*
X79727500Y-138810000D01*
G75*
G02*
X79580000Y-138662500I0J147500D01*
G01*
X79580000Y-138367500D01*
G75*
G02*
X79727500Y-138220000I147500J0D01*
G01*
G37*
%TD*%
%TO.C,R6*%
G36*
G01*
X72472500Y-138810000D02*
X72127500Y-138810000D01*
G75*
G02*
X71980000Y-138662500I0J147500D01*
G01*
X71980000Y-138367500D01*
G75*
G02*
X72127500Y-138220000I147500J0D01*
G01*
X72472500Y-138220000D01*
G75*
G02*
X72620000Y-138367500I0J-147500D01*
G01*
X72620000Y-138662500D01*
G75*
G02*
X72472500Y-138810000I-147500J0D01*
G01*
G37*
G36*
G01*
X72472500Y-139780000D02*
X72127500Y-139780000D01*
G75*
G02*
X71980000Y-139632500I0J147500D01*
G01*
X71980000Y-139337500D01*
G75*
G02*
X72127500Y-139190000I147500J0D01*
G01*
X72472500Y-139190000D01*
G75*
G02*
X72620000Y-139337500I0J-147500D01*
G01*
X72620000Y-139632500D01*
G75*
G02*
X72472500Y-139780000I-147500J0D01*
G01*
G37*
%TD*%
%TO.C,R5*%
G36*
G01*
X102922500Y-138810000D02*
X102577500Y-138810000D01*
G75*
G02*
X102430000Y-138662500I0J147500D01*
G01*
X102430000Y-138367500D01*
G75*
G02*
X102577500Y-138220000I147500J0D01*
G01*
X102922500Y-138220000D01*
G75*
G02*
X103070000Y-138367500I0J-147500D01*
G01*
X103070000Y-138662500D01*
G75*
G02*
X102922500Y-138810000I-147500J0D01*
G01*
G37*
G36*
G01*
X102922500Y-139780000D02*
X102577500Y-139780000D01*
G75*
G02*
X102430000Y-139632500I0J147500D01*
G01*
X102430000Y-139337500D01*
G75*
G02*
X102577500Y-139190000I147500J0D01*
G01*
X102922500Y-139190000D01*
G75*
G02*
X103070000Y-139337500I0J-147500D01*
G01*
X103070000Y-139632500D01*
G75*
G02*
X102922500Y-139780000I-147500J0D01*
G01*
G37*
%TD*%
%TO.C,R4*%
G36*
G01*
X96572500Y-136010000D02*
X96227500Y-136010000D01*
G75*
G02*
X96080000Y-135862500I0J147500D01*
G01*
X96080000Y-135567500D01*
G75*
G02*
X96227500Y-135420000I147500J0D01*
G01*
X96572500Y-135420000D01*
G75*
G02*
X96720000Y-135567500I0J-147500D01*
G01*
X96720000Y-135862500D01*
G75*
G02*
X96572500Y-136010000I-147500J0D01*
G01*
G37*
G36*
G01*
X96572500Y-136980000D02*
X96227500Y-136980000D01*
G75*
G02*
X96080000Y-136832500I0J147500D01*
G01*
X96080000Y-136537500D01*
G75*
G02*
X96227500Y-136390000I147500J0D01*
G01*
X96572500Y-136390000D01*
G75*
G02*
X96720000Y-136537500I0J-147500D01*
G01*
X96720000Y-136832500D01*
G75*
G02*
X96572500Y-136980000I-147500J0D01*
G01*
G37*
%TD*%
%TO.C,R3*%
G36*
G01*
X52800628Y-180767376D02*
X52800628Y-180422376D01*
G75*
G02*
X52948128Y-180274876I147500J0D01*
G01*
X53243128Y-180274876D01*
G75*
G02*
X53390628Y-180422376I0J-147500D01*
G01*
X53390628Y-180767376D01*
G75*
G02*
X53243128Y-180914876I-147500J0D01*
G01*
X52948128Y-180914876D01*
G75*
G02*
X52800628Y-180767376I0J147500D01*
G01*
G37*
G36*
G01*
X51830628Y-180767376D02*
X51830628Y-180422376D01*
G75*
G02*
X51978128Y-180274876I147500J0D01*
G01*
X52273128Y-180274876D01*
G75*
G02*
X52420628Y-180422376I0J-147500D01*
G01*
X52420628Y-180767376D01*
G75*
G02*
X52273128Y-180914876I-147500J0D01*
G01*
X51978128Y-180914876D01*
G75*
G02*
X51830628Y-180767376I0J147500D01*
G01*
G37*
%TD*%
%TO.C,R2*%
G36*
G01*
X66172500Y-136010000D02*
X65827500Y-136010000D01*
G75*
G02*
X65680000Y-135862500I0J147500D01*
G01*
X65680000Y-135567500D01*
G75*
G02*
X65827500Y-135420000I147500J0D01*
G01*
X66172500Y-135420000D01*
G75*
G02*
X66320000Y-135567500I0J-147500D01*
G01*
X66320000Y-135862500D01*
G75*
G02*
X66172500Y-136010000I-147500J0D01*
G01*
G37*
G36*
G01*
X66172500Y-136980000D02*
X65827500Y-136980000D01*
G75*
G02*
X65680000Y-136832500I0J147500D01*
G01*
X65680000Y-136537500D01*
G75*
G02*
X65827500Y-136390000I147500J0D01*
G01*
X66172500Y-136390000D01*
G75*
G02*
X66320000Y-136537500I0J-147500D01*
G01*
X66320000Y-136832500D01*
G75*
G02*
X66172500Y-136980000I-147500J0D01*
G01*
G37*
%TD*%
%TO.C,R1*%
G36*
G01*
X64822500Y-138810000D02*
X64477500Y-138810000D01*
G75*
G02*
X64330000Y-138662500I0J147500D01*
G01*
X64330000Y-138367500D01*
G75*
G02*
X64477500Y-138220000I147500J0D01*
G01*
X64822500Y-138220000D01*
G75*
G02*
X64970000Y-138367500I0J-147500D01*
G01*
X64970000Y-138662500D01*
G75*
G02*
X64822500Y-138810000I-147500J0D01*
G01*
G37*
G36*
G01*
X64822500Y-139780000D02*
X64477500Y-139780000D01*
G75*
G02*
X64330000Y-139632500I0J147500D01*
G01*
X64330000Y-139337500D01*
G75*
G02*
X64477500Y-139190000I147500J0D01*
G01*
X64822500Y-139190000D01*
G75*
G02*
X64970000Y-139337500I0J-147500D01*
G01*
X64970000Y-139632500D01*
G75*
G02*
X64822500Y-139780000I-147500J0D01*
G01*
G37*
%TD*%
%TO.C,D1*%
G36*
G01*
X55985628Y-180851126D02*
X55985628Y-180338626D01*
G75*
G02*
X56204378Y-180119876I218750J0D01*
G01*
X56641878Y-180119876D01*
G75*
G02*
X56860628Y-180338626I0J-218750D01*
G01*
X56860628Y-180851126D01*
G75*
G02*
X56641878Y-181069876I-218750J0D01*
G01*
X56204378Y-181069876D01*
G75*
G02*
X55985628Y-180851126I0J218750D01*
G01*
G37*
G36*
G01*
X54410628Y-180851126D02*
X54410628Y-180338626D01*
G75*
G02*
X54629378Y-180119876I218750J0D01*
G01*
X55066878Y-180119876D01*
G75*
G02*
X55285628Y-180338626I0J-218750D01*
G01*
X55285628Y-180851126D01*
G75*
G02*
X55066878Y-181069876I-218750J0D01*
G01*
X54629378Y-181069876D01*
G75*
G02*
X54410628Y-180851126I0J218750D01*
G01*
G37*
%TD*%
M02*
