%TF.GenerationSoftware,KiCad,Pcbnew,5.1.6*%
%TF.CreationDate,2020-08-12T10:28:14+02:00*%
%TF.ProjectId,ATAPIHat-SMI,41544150-4948-4617-942d-534d492e6b69,rev?*%
%TF.SameCoordinates,Original*%
%TF.FileFunction,Legend,Bot*%
%TF.FilePolarity,Positive*%
%FSLAX46Y46*%
G04 Gerber Fmt 4.6, Leading zero omitted, Abs format (unit mm)*
G04 Created by KiCad (PCBNEW 5.1.6) date 2020-08-12 10:28:14*
%MOMM*%
%LPD*%
G01*
G04 APERTURE LIST*
%ADD10C,0.150000*%
%ADD11C,0.120000*%
G04 APERTURE END LIST*
D10*
X47618008Y-136605828D02*
X48332294Y-136605828D01*
X48475151Y-136558209D01*
X48570389Y-136462971D01*
X48618008Y-136320114D01*
X48618008Y-136224876D01*
X48618008Y-137558209D02*
X48618008Y-137082018D01*
X47618008Y-137082018D01*
X48522770Y-138462971D02*
X48570389Y-138415352D01*
X48618008Y-138272495D01*
X48618008Y-138177256D01*
X48570389Y-138034399D01*
X48475151Y-137939161D01*
X48379913Y-137891542D01*
X48189437Y-137843923D01*
X48046580Y-137843923D01*
X47856104Y-137891542D01*
X47760866Y-137939161D01*
X47665628Y-138034399D01*
X47618008Y-138177256D01*
X47618008Y-138272495D01*
X47665628Y-138415352D01*
X47713247Y-138462971D01*
X47618008Y-139177256D02*
X48332294Y-139177256D01*
X48475151Y-139129637D01*
X48570389Y-139034399D01*
X48618008Y-138891542D01*
X48618008Y-138796304D01*
X48618008Y-140129637D02*
X48618008Y-139653447D01*
X47618008Y-139653447D01*
X48522770Y-141034399D02*
X48570389Y-140986780D01*
X48618008Y-140843923D01*
X48618008Y-140748685D01*
X48570389Y-140605828D01*
X48475151Y-140510590D01*
X48379913Y-140462971D01*
X48189437Y-140415352D01*
X48046580Y-140415352D01*
X47856104Y-140462971D01*
X47760866Y-140510590D01*
X47665628Y-140605828D01*
X47618008Y-140748685D01*
X47618008Y-140843923D01*
X47665628Y-140986780D01*
X47713247Y-141034399D01*
X47618008Y-141748685D02*
X48332294Y-141748685D01*
X48475151Y-141701066D01*
X48570389Y-141605828D01*
X48618008Y-141462971D01*
X48618008Y-141367733D01*
X48618008Y-142701066D02*
X48618008Y-142224876D01*
X47618008Y-142224876D01*
X48522770Y-143605828D02*
X48570389Y-143558209D01*
X48618008Y-143415352D01*
X48618008Y-143320114D01*
X48570389Y-143177256D01*
X48475151Y-143082018D01*
X48379913Y-143034399D01*
X48189437Y-142986780D01*
X48046580Y-142986780D01*
X47856104Y-143034399D01*
X47760866Y-143082018D01*
X47665628Y-143177256D01*
X47618008Y-143320114D01*
X47618008Y-143415352D01*
X47665628Y-143558209D01*
X47713247Y-143605828D01*
X47618008Y-144320114D02*
X48332294Y-144320114D01*
X48475151Y-144272495D01*
X48570389Y-144177256D01*
X48618008Y-144034399D01*
X48618008Y-143939161D01*
X48618008Y-145272495D02*
X48618008Y-144796304D01*
X47618008Y-144796304D01*
X48522770Y-146177256D02*
X48570389Y-146129637D01*
X48618008Y-145986780D01*
X48618008Y-145891542D01*
X48570389Y-145748685D01*
X48475151Y-145653447D01*
X48379913Y-145605828D01*
X48189437Y-145558209D01*
X48046580Y-145558209D01*
X47856104Y-145605828D01*
X47760866Y-145653447D01*
X47665628Y-145748685D01*
X47618008Y-145891542D01*
X47618008Y-145986780D01*
X47665628Y-146129637D01*
X47713247Y-146177256D01*
D11*
%TO.C,J1*%
X51915628Y-132969876D02*
X51915628Y-134299876D01*
X51915628Y-134299876D02*
X53245628Y-134299876D01*
X51915628Y-131699876D02*
X54515628Y-131699876D01*
X54515628Y-131699876D02*
X54515628Y-134299876D01*
X54515628Y-134299876D02*
X102835628Y-134299876D01*
X102835628Y-129099876D02*
X102835628Y-134299876D01*
X51915628Y-129099876D02*
X102835628Y-129099876D01*
X51915628Y-129099876D02*
X51915628Y-131699876D01*
%TD*%
M02*
